<?xml version="1.0" encoding="utf-8"?>
<svg version="1.1" xmlns:xlink="http://www.w3.org/1999/xlink" width="466px" height="6px" preserveAspectRatio="xMinYMid meet" viewBox="158 395  466 4" xmlns="http://www.w3.org/2000/svg">
  <path d="M 163 394.5  A 3 3 0 0 0 160 397.5 A 3 3 0 0 0 163 400.5 A 3 3 0 0 0 166 397.5 A 3 3 0 0 0 163 394.5 Z M 618 394.5  A 3 3 0 0 0 615 397.5 A 3 3 0 0 0 618 400.5 A 3 3 0 0 0 621 397.5 A 3 3 0 0 0 618 394.5 Z " fill-rule="nonzero" fill="#0174f3" stroke="none" />
  <path d="M 161 397.5  L 620 397.5  " stroke-width="1" stroke="#0174f3" fill="none" />
</svg>