<?xml version="1.0" encoding="utf-8"?>
<svg version="1.1" xmlns:xlink="http://www.w3.org/1999/xlink" width="1178px" height="239px" xmlns="http://www.w3.org/2000/svg">
  <defs>
    <linearGradient gradientUnits="userSpaceOnUse" x1="588.5" y1="0" x2="588.5" y2="238" id="LinearGradient280">
      <stop id="Stop281" stop-color="#02a7f0" offset="0" />
      <stop id="Stop282" stop-color="#2f54eb" stop-opacity="0.4" offset="1" />
    </linearGradient>
  </defs>
  <g transform="matrix(1 0 0 1 -129 -349 )">
    <path d="M 4.5 236.782608695652  L 1177.5 236.782608695652  L 1177.5 175.806730196546  C 1177.5 175.806730196546  1091.60313236359 135.329937188477  981.856366797045 133.924749163879  C 871.128618061493 132.507000716255  883.37705210098 194.761454998982  790.549109083007 175.806730196546  C 670.319012740758 151.256704471033  731.540602469626 75.0221542621214  606.40308561495 28.8545150501673  C 507.926152888998 -7.47709528593596  506.813152554932 -5.95640099907497  399.613414403629 14.7427670922903  C 272.181818344114 39.3484990882395  320.469856662176 86.3336460769303  193.32837260576 125.372746553553  C 95.8209248573645 155.312644440693  4.5 147.456521739131  4.5 147.456521739131  L 4.5 236.782608695652  Z " fill-rule="nonzero" fill="url(#LinearGradient280)" stroke="none" transform="matrix(1 0 0 1 129 349 )" />
    <path d="M 1177.5 236.782608695652  L 1177.5 175.806730196546  C 1177.5 175.806730196546  1091.60313236359 135.329937188477  981.856366797045 133.924749163879  C 871.128618061493 132.507000716255  883.37705210098 194.761454998982  790.549109083007 175.806730196546  C 670.319012740758 151.256704471033  731.540602469626 75.0221542621214  606.40308561495 28.8545150501673  C 507.926152888998 -7.47709528593596  506.813152554932 -5.95640099907497  399.613414403629 14.7427670922903  C 272.181818344114 39.3484990882395  320.469856662176 86.3336460769303  193.32837260576 125.372746553553  C 95.8209248573645 155.312644440693  4.5 147.456521739131  4.5 147.456521739131  L 4.5 236.782608695652  " stroke-width="1" stroke="#13c2c2" fill="none" transform="matrix(1 0 0 1 129 349 )" />
  </g>
</svg>