<?xml version="1.0" encoding="utf-8"?>
<svg version="1.1" xmlns:xlink="http://www.w3.org/1999/xlink" width="168px" height="168px" xmlns="http://www.w3.org/2000/svg">
  <g transform="matrix(1 0 0 1 -142 -813 )">
    <path d="M 226 813  C 273.04 813  310 849.96  310 897  C 310 944.04  273.04 981  226 981  C 178.96 981  142 944.04  142 897  C 142 849.96  178.96 813  226 813  Z " fill-rule="nonzero" fill="#030e1b" stroke="none" />
    <path d="M 226 813.5  C 272.76 813.5  309.5 850.24  309.5 897  C 309.5 943.76  272.76 980.5  226 980.5  C 179.24 980.5  142.5 943.76  142.5 897  C 142.5 850.24  179.24 813.5  226 813.5  Z " stroke-width="1" stroke="#ffffff" fill="none" />
  </g>
</svg>