<?xml version="1.0" encoding="utf-8"?>
<svg version="1.1" xmlns:xlink="http://www.w3.org/1999/xlink" width="9px" height="9px" xmlns="http://www.w3.org/2000/svg">
  <defs>
    <mask fill="white" id="clip902">
      <path d="M 9 4.5  C 9 1.98  7.02 0  4.5 0  C 1.98 0  0 1.98  0 4.5  C 0 7.02  1.98 9  4.5 9  C 7.02 9  9 7.02  9 4.5  Z " fill-rule="evenodd" />
    </mask>
  </defs>
  <g transform="matrix(1 0 0 1 -128 -117 )">
    <path d="M 9 4.5  C 9 1.98  7.02 0  4.5 0  C 1.98 0  0 1.98  0 4.5  C 0 7.02  1.98 9  4.5 9  C 7.02 9  9 7.02  9 4.5  Z " fill-rule="nonzero" fill="#007afe" stroke="none" fill-opacity="0.988235294117647" transform="matrix(1 0 0 1 128 117 )" />
    <path d="M 9 4.5  C 9 1.98  7.02 0  4.5 0  C 1.98 0  0 1.98  0 4.5  C 0 7.02  1.98 9  4.5 9  C 7.02 9  9 7.02  9 4.5  Z " stroke-width="2" stroke="#007afe" fill="none" transform="matrix(1 0 0 1 128 117 )" mask="url(#clip902)" />
  </g>
</svg>