<?xml version="1.0" encoding="utf-8"?>
<svg version="1.1" xmlns:xlink="http://www.w3.org/1999/xlink" width="80px" height="35px" xmlns="http://www.w3.org/2000/svg">
  <g transform="matrix(1 0 0 1 -396 -240 )">
    <path d="M 396.5 245  A 4.5 4.5 0 0 1 401 240.5 L 471 240.5  A 4.5 4.5 0 0 1 475.5 245 L 475.5 270  A 4.5 4.5 0 0 1 471 274.5 L 401 274.5  A 4.5 4.5 0 0 1 396.5 270 L 396.5 245  Z " fill-rule="nonzero" fill="#f0f7ff" stroke="none" />
    <path d="M 396.5 245  A 4.5 4.5 0 0 1 401 240.5 L 471 240.5  A 4.5 4.5 0 0 1 475.5 245 L 475.5 270  A 4.5 4.5 0 0 1 471 274.5 L 401 274.5  A 4.5 4.5 0 0 1 396.5 270 L 396.5 245  Z " stroke-width="1" stroke="#409eff" fill="none" />
  </g>
</svg>