<?xml version="1.0" encoding="utf-8"?>
<svg version="1.1" xmlns:xlink="http://www.w3.org/1999/xlink" width="80px" height="35px" xmlns="http://www.w3.org/2000/svg">
  <g transform="matrix(1 0 0 1 -638 -223 )">
    <path d="M 639 228  A 4 4 0 0 1 643 224 L 713 224  A 4 4 0 0 1 717 228 L 717 253  A 4 4 0 0 1 713 257 L 643 257  A 4 4 0 0 1 639 253 L 639 228  Z " fill-rule="nonzero" fill="#f0f7ff" stroke="none" />
    <path d="M 638.5 228  A 4.5 4.5 0 0 1 643 223.5 L 713 223.5  A 4.5 4.5 0 0 1 717.5 228 L 717.5 253  A 4.5 4.5 0 0 1 713 257.5 L 643 257.5  A 4.5 4.5 0 0 1 638.5 253 L 638.5 228  Z " stroke-width="1" stroke="#7abbff" fill="none" stroke-opacity="0.996078431372549" />
  </g>
</svg>