<?xml version="1.0" encoding="utf-8"?>
<svg version="1.1" xmlns:xlink="http://www.w3.org/1999/xlink" width="519px" height="188px" xmlns="http://www.w3.org/2000/svg">
  <g transform="matrix(1 0 0 1 -53 -143 )">
    <path d="M 54 158  A 14 14 0 0 1 68 144 L 557 144  A 14 14 0 0 1 571 158 L 571 316  A 14 14 0 0 1 557 330 L 68 330  A 14 14 0 0 1 54 316 L 54 158  Z " fill-rule="nonzero" fill="#123f73" stroke="none" fill-opacity="0.298039215686275" />
    <path d="M 53.5 158  A 14.5 14.5 0 0 1 68 143.5 L 557 143.5  A 14.5 14.5 0 0 1 571.5 158 L 571.5 316  A 14.5 14.5 0 0 1 557 330.5 L 68 330.5  A 14.5 14.5 0 0 1 53.5 316 L 53.5 158  Z " stroke-width="1" stroke="#064a9b" fill="none" stroke-opacity="0.996078431372549" />
  </g>
</svg>