<?xml version="1.0" encoding="utf-8"?>
<svg version="1.1" xmlns:xlink="http://www.w3.org/1999/xlink" width="945px" height="304px" xmlns="http://www.w3.org/2000/svg">
  <g transform="matrix(1 0 0 1 -960 -2011 )">
    <path d="M 961 2026  A 14 14 0 0 1 975 2012 L 1890 2012  A 14 14 0 0 1 1904 2026 L 1904 2300  A 14 14 0 0 1 1890 2314 L 975 2314  A 14 14 0 0 1 961 2300 L 961 2026  Z " fill-rule="nonzero" fill="#123f73" stroke="none" fill-opacity="0.298039215686275" />
    <path d="M 960.5 2026  A 14.5 14.5 0 0 1 975 2011.5 L 1890 2011.5  A 14.5 14.5 0 0 1 1904.5 2026 L 1904.5 2300  A 14.5 14.5 0 0 1 1890 2314.5 L 975 2314.5  A 14.5 14.5 0 0 1 960.5 2300 L 960.5 2026  Z " stroke-width="1" stroke="#064a9b" fill="none" stroke-opacity="0.996078431372549" />
  </g>
</svg>