<?xml version="1.0" encoding="utf-8"?>
<svg version="1.1" xmlns:xlink="http://www.w3.org/1999/xlink" width="132px" height="132px" xmlns="http://www.w3.org/2000/svg">
  <g transform="matrix(1 0 0 1 -661 -847 )">
    <path d="M 132 66  C 132 102.96  102.96 132  66 132  C 29.04 132  0 102.96  0 66  C 0 29.04  29.04 0  66 0  C 102.96 0  132 29.04  132 66  Z M 16 66  C 16 94  38 116  66 116  C 94 116  116 94  116 66  C 116 38  94 16  66 16  C 38 16  16 38  16 66  Z " fill-rule="nonzero" fill="#123f73" stroke="none" fill-opacity="0.6" transform="matrix(1 0 0 1 661 847 )" />
  </g>
</svg>