<?xml version="1.0" encoding="utf-8"?>
<svg version="1.1" xmlns:xlink="http://www.w3.org/1999/xlink" width="913px" height="292px" xmlns="http://www.w3.org/2000/svg">
  <g transform="matrix(1 0 0 1 -1149 -2540 )">
    <path d="M 1150 2617  A 76 76 0 0 1 1226 2541 L 1985 2541  A 76 76 0 0 1 2061 2617 L 2061 2755  A 76 76 0 0 1 1985 2831 L 1226 2831  A 76 76 0 0 1 1150 2755 L 1150 2617  Z " fill-rule="nonzero" fill="#123f73" stroke="none" fill-opacity="0.298039215686275" />
    <path d="M 1149.5 2617  A 76.5 76.5 0 0 1 1226 2540.5 L 1985 2540.5  A 76.5 76.5 0 0 1 2061.5 2617 L 2061.5 2755  A 76.5 76.5 0 0 1 1985 2831.5 L 1226 2831.5  A 76.5 76.5 0 0 1 1149.5 2755 L 1149.5 2617  Z " stroke-width="1" stroke="#064a9b" fill="none" stroke-opacity="0.996078431372549" />
  </g>
</svg>