<?xml version="1.0" encoding="utf-8"?>
<svg version="1.1" xmlns:xlink="http://www.w3.org/1999/xlink" width="200px" height="188px" xmlns="http://www.w3.org/2000/svg">
  <g transform="matrix(1 0 0 1 -503 -2097 )">
    <path d="M 53.4199976871908 0  L 69.455072964756 29.6912622760137  C 47.8221651177872 40.8466326509054  33.3333333333333 63.2450994768461  33.3333333333333 89.5764705882353  C 33.3333333333333 127.353411764706  63.1555555555555 157.035294117647  101.111111111111 157.035294117647  C 139.066666666667 157.035294117647  168.888888888889 127.353411764706  168.888888888889 89.5764705882353  C 168.888888888889 72.2507540624004  162.615982145668 56.6277794953139  152.162500651454 44.7900321729415  L 176.266921800021 23.2235294117647  C 191.124844018391 40.7527743457915  200 63.611702140657  200 88.8987791215266  C 200 101.243410375211  197.884880171949 113.009367124534  193.991124367647 123.859069081201  L 194.444444444444 124.026238665553  C 180.250390579998 161.751077556436  143.946666597006 188  100.426087684647 188  C 44.1874785812446 188  0 144.167999283705  0 88.3818165538761  C 0 49.5386409022276  21.4227583043104 16.4910335931092  53.4199976871908 0  Z " fill-rule="nonzero" fill="#24b3e8" stroke="none" transform="matrix(1 0 0 1 503 2097 )" />
  </g>
</svg>