<?xml version="1.0" encoding="utf-8"?>
<svg version="1.1" xmlns:xlink="http://www.w3.org/1999/xlink" width="9px" height="9px" xmlns="http://www.w3.org/2000/svg">
  <g transform="matrix(1 0 0 1 -432 -2112 )">
    <path d="M 436.5 2112.5  C 438.74 2112.5  440.5 2114.26  440.5 2116.5  C 440.5 2118.74  438.74 2120.5  436.5 2120.5  C 434.26 2120.5  432.5 2118.74  432.5 2116.5  C 432.5 2114.26  434.26 2112.5  436.5 2112.5  Z " fill-rule="nonzero" fill="#0141e1" stroke="none" fill-opacity="0.996078431372549" />
    <path d="M 436.5 2112.5  C 438.74 2112.5  440.5 2114.26  440.5 2116.5  C 440.5 2118.74  438.74 2120.5  436.5 2120.5  C 434.26 2120.5  432.5 2118.74  432.5 2116.5  C 432.5 2114.26  434.26 2112.5  436.5 2112.5  Z " stroke-width="1" stroke="#0543e5" fill="none" stroke-opacity="0.317647058823529" />
  </g>
</svg>