<?xml version="1.0" encoding="utf-8"?>
<svg version="1.1" xmlns:xlink="http://www.w3.org/1999/xlink" width="304px" height="253px" xmlns="http://www.w3.org/2000/svg">
  <defs>
    <mask fill="white" id="clip466">
      <path d="M 0 126.5  L 21.0990230504621 91.3812313699545  L 21.4056960514417 90.8707822301661  L 76 0  L 228 0  L 304 126.5  L 228 253  L 76 253  L 0 126.5  Z " fill-rule="evenodd" />
    </mask>
  </defs>
  <g transform="matrix(1 0 0 1 -286 -2100 )">
    <path d="M 0 126.5  L 21.0990230504621 91.3812313699545  L 21.4056960514417 90.8707822301661  L 76 0  L 228 0  L 304 126.5  L 228 253  L 76 253  L 0 126.5  Z " fill-rule="nonzero" fill="#0442e3" stroke="none" fill-opacity="0.145098039215686" transform="matrix(1 0 0 1 286 2100 )" />
    <path d="M 0 126.5  L 21.0990230504621 91.3812313699545  L 21.4056960514417 90.8707822301661  L 76 0  L 228 0  L 304 126.5  L 228 253  L 76 253  L 0 126.5  Z " stroke-width="2" stroke="#0000bf" fill="none" stroke-opacity="0.996078431372549" transform="matrix(1 0 0 1 286 2100 )" mask="url(#clip466)" />
  </g>
</svg>