<?xml version="1.0" encoding="utf-8"?>
<svg version="1.1" xmlns:xlink="http://www.w3.org/1999/xlink" width="7px" height="7px" xmlns="http://www.w3.org/2000/svg">
  <defs>
    <linearGradient gradientUnits="userSpaceOnUse" x1="3937.5" y1="731" x2="3937.5" y2="738" id="LinearGradient454">
      <stop id="Stop455" stop-color="#409eff" stop-opacity="0.533333333333333" offset="0" />
      <stop id="Stop456" stop-color="#4e7beb" offset="1" />
    </linearGradient>
    <linearGradient gradientUnits="userSpaceOnUse" x1="3937.5" y1="731" x2="3937.5" y2="738" id="LinearGradient457">
      <stop id="Stop458" stop-color="#409eff" offset="0" />
      <stop id="Stop459" stop-color="#4e7beb" offset="1" />
    </linearGradient>
  </defs>
  <g transform="matrix(1 0 0 1 -3934 -731 )">
    <path d="M 3937.5 732  C 3938.9 732  3940 733.1  3940 734.5  C 3940 735.9  3938.9 737  3937.5 737  C 3936.1 737  3935 735.9  3935 734.5  C 3935 733.1  3936.1 732  3937.5 732  Z " fill-rule="nonzero" fill="url(#LinearGradient454)" stroke="none" />
    <path d="M 3937.5 732  C 3938.9 732  3940 733.1  3940 734.5  C 3940 735.9  3938.9 737  3937.5 737  C 3936.1 737  3935 735.9  3935 734.5  C 3935 733.1  3936.1 732  3937.5 732  Z " stroke-width="2" stroke="url(#LinearGradient457)" fill="none" />
  </g>
</svg>