<?xml version="1.0" encoding="utf-8"?>
<svg version="1.1" xmlns:xlink="http://www.w3.org/1999/xlink" width="7px" height="7px" xmlns="http://www.w3.org/2000/svg">
  <defs>
    <linearGradient gradientUnits="userSpaceOnUse" x1="1498.83333333333" y1="847.333333333333" x2="1498.83333333333" y2="708" id="LinearGradient472">
      <stop id="Stop473" stop-color="#4e7beb" offset="0" />
      <stop id="Stop474" stop-color="#4e7beb" stop-opacity="0.729411764705882" offset="1" />
    </linearGradient>
    <linearGradient gradientUnits="userSpaceOnUse" x1="1413.5" y1="761" x2="1413.5" y2="768" id="LinearGradient475">
      <stop id="Stop476" stop-color="#409eff" stop-opacity="0.533333333333333" offset="0" />
      <stop id="Stop477" stop-color="#4e7beb" offset="1" />
    </linearGradient>
  </defs>
  <g transform="matrix(1 0 0 1 -1410 -761 )">
    <path d="M 1413.5 762  C 1414.9 762  1416 763.1  1416 764.5  C 1416 765.9  1414.9 767  1413.5 767  C 1412.1 767  1411 765.9  1411 764.5  C 1411 763.1  1412.1 762  1413.5 762  Z " fill-rule="nonzero" fill="url(#LinearGradient472)" stroke="none" />
    <path d="M 1413.5 762  C 1414.9 762  1416 763.1  1416 764.5  C 1416 765.9  1414.9 767  1413.5 767  C 1412.1 767  1411 765.9  1411 764.5  C 1411 763.1  1412.1 762  1413.5 762  Z " stroke-width="2" stroke="url(#LinearGradient475)" fill="none" />
  </g>
</svg>