<?xml version="1.0" encoding="utf-8"?>
<svg version="1.1" xmlns:xlink="http://www.w3.org/1999/xlink" width="9px" height="9px" xmlns="http://www.w3.org/2000/svg">
  <g transform="matrix(1 0 0 1 -390 -630 )">
    <path d="M 394.5 630.5  C 396.74 630.5  398.5 632.26  398.5 634.5  C 398.5 636.74  396.74 638.5  394.5 638.5  C 392.26 638.5  390.5 636.74  390.5 634.5  C 390.5 632.26  392.26 630.5  394.5 630.5  Z " fill-rule="nonzero" fill="#0141e1" stroke="none" fill-opacity="0.996078431372549" />
    <path d="M 394.5 630.5  C 396.74 630.5  398.5 632.26  398.5 634.5  C 398.5 636.74  396.74 638.5  394.5 638.5  C 392.26 638.5  390.5 636.74  390.5 634.5  C 390.5 632.26  392.26 630.5  394.5 630.5  Z " stroke-width="1" stroke="#0543e5" fill="none" stroke-opacity="0.317647058823529" />
  </g>
</svg>