<?xml version="1.0" encoding="utf-8"?>
<svg version="1.1" xmlns:xlink="http://www.w3.org/1999/xlink" width="234px" height="204px" xmlns="http://www.w3.org/2000/svg">
  <defs>
    <mask fill="white" id="clip1494">
      <path d="M 188.942760670235 203.640864150674  L 66.4052035271027 196.335363563769  L 0.391987269865242 96.1684018638232  L 67.2514596045752 1.02083151244663  L 173.617719877237 18.0699681157055  L 233.833493478485 94.8550401009063  L 188.942760670235 203.640864150674  Z " fill-rule="evenodd" />
    </mask>
  </defs>
  <g transform="matrix(1 0 0 1 -268 -642 )">
    <path d="M 188.942760670235 203.640864150674  L 66.4052035271027 196.335363563769  L 0.391987269865242 96.1684018638232  L 67.2514596045752 1.02083151244663  L 173.617719877237 18.0699681157055  L 233.833493478485 94.8550401009063  L 188.942760670235 203.640864150674  Z " fill-rule="nonzero" fill="#0141e1" stroke="none" fill-opacity="0.435294117647059" transform="matrix(1 0 0 1 268 642 )" />
    <path d="M 188.942760670235 203.640864150674  L 66.4052035271027 196.335363563769  L 0.391987269865242 96.1684018638232  L 67.2514596045752 1.02083151244663  L 173.617719877237 18.0699681157055  L 233.833493478485 94.8550401009063  L 188.942760670235 203.640864150674  Z " stroke-width="2" stroke="#0543e5" fill="none" stroke-opacity="0.317647058823529" transform="matrix(1 0 0 1 268 642 )" mask="url(#clip1494)" />
  </g>
</svg>