<?xml version="1.0" encoding="utf-8"?>
<svg version="1.1" xmlns:xlink="http://www.w3.org/1999/xlink" width="80px" height="35px" xmlns="http://www.w3.org/2000/svg">
  <g transform="matrix(1 0 0 1 -517 -239 )">
    <path d="M 517.5 244  A 4.5 4.5 0 0 1 522 239.5 L 592 239.5  A 4.5 4.5 0 0 1 596.5 244 L 596.5 269  A 4.5 4.5 0 0 1 592 273.5 L 522 273.5  A 4.5 4.5 0 0 1 517.5 269 L 517.5 244  Z " fill-rule="nonzero" fill="#f0f7ff" stroke="none" />
    <path d="M 517.5 244  A 4.5 4.5 0 0 1 522 239.5 L 592 239.5  A 4.5 4.5 0 0 1 596.5 244 L 596.5 269  A 4.5 4.5 0 0 1 592 273.5 L 522 273.5  A 4.5 4.5 0 0 1 517.5 269 L 517.5 244  Z " stroke-width="1" stroke="#409eff" fill="none" />
  </g>
</svg>