<?xml version="1.0" encoding="utf-8"?>
<svg version="1.1" xmlns:xlink="http://www.w3.org/1999/xlink" width="22px" height="20px" preserveAspectRatio="xMinYMid meet" viewBox="1794 823  22 18" xmlns="http://www.w3.org/2000/svg">
  <g transform="matrix(-1 0 0 -1 3610 1664 )">
    <path d="M 1351 828.5  A 3 3 0 0 0 1348 831.5 A 3 3 0 0 0 1351 834.5 A 3 3 0 0 0 1354 831.5 A 3 3 0 0 0 1351 828.5 Z M 1806 828.5  A 3 3 0 0 0 1803 831.5 A 3 3 0 0 0 1806 834.5 A 3 3 0 0 0 1809 831.5 A 3 3 0 0 0 1806 828.5 Z " fill-rule="nonzero" fill="#0174f3" stroke="none" />
    <path d="M 1349 831.5  L 1808 831.5  " stroke-width="1" stroke="#0174f3" fill="none" />
  </g>
</svg>