<?xml version="1.0" encoding="utf-8"?>
<svg version="1.1" xmlns:xlink="http://www.w3.org/1999/xlink" width="654px" height="156px" xmlns="http://www.w3.org/2000/svg">
  <defs>
    <linearGradient gradientUnits="userSpaceOnUse" x1="326.5" y1="0" x2="326.5" y2="155" id="LinearGradient1299">
      <stop id="Stop1300" stop-color="#02a7f0" offset="0" />
      <stop id="Stop1301" stop-color="#2f54eb" stop-opacity="0.4" offset="1" />
    </linearGradient>
  </defs>
  <g transform="matrix(1 0 0 1 -1214 -609 )">
    <path d="M 2.5 154.20716112532  L 653.5 154.20716112532  L 653.5 114.495979749851  C 653.5 114.495979749851  605.621788813444 88.1350431269491  544.734245980009 87.2198996655518  C 483.302453351024 86.2965760967205  490.097888718726 126.84044338169  438.59691438505 114.495979749851  C 371.893216074524 98.5075176176894  405.858974862078 48.8589660110455  336.432637983485 18.7918060200669  C 281.79760224003 -4.86953684588267  281.180109276441 -3.87916871788496  221.705658118581 9.60138192985295  C 151.006565317507 25.6261233557862  177.796785386917 56.2256938736311  107.258646823756 81.6503181336162  C 53.1614816753263 101.148991127342  2.5 96.0326086956526  2.5 96.0326086956526  L 2.5 154.20716112532  Z " fill-rule="nonzero" fill="url(#LinearGradient1299)" stroke="none" transform="matrix(1 0 0 1 1214 609 )" />
    <path d="M 653.5 154.20716112532  L 653.5 114.495979749851  C 653.5 114.495979749851  605.621788813444 88.1350431269491  544.734245980009 87.2198996655518  C 483.302453351024 86.2965760967205  490.097888718726 126.84044338169  438.59691438505 114.495979749851  C 371.893216074524 98.5075176176894  405.858974862078 48.8589660110455  336.432637983485 18.7918060200669  C 281.79760224003 -4.86953684588267  281.180109276441 -3.87916871788496  221.705658118581 9.60138192985295  C 151.006565317507 25.6261233557862  177.796785386917 56.2256938736311  107.258646823756 81.6503181336162  C 53.1614816753263 101.148991127342  2.5 96.0326086956526  2.5 96.0326086956526  L 2.5 154.20716112532  " stroke-width="1" stroke="#13c2c2" fill="none" transform="matrix(1 0 0 1 1214 609 )" />
  </g>
</svg>