<?xml version="1.0" encoding="utf-8"?>
<svg version="1.1" xmlns:xlink="http://www.w3.org/1999/xlink" width="765px" height="112px" xmlns="http://www.w3.org/2000/svg">
  <g transform="matrix(1 0 0 1 -122 -855 )">
    <path d="M 0.021751818583013 73.3930395780556  C 0.021751818583013 73.3930395780556  72.4450198280088 108.201964642389  127.269890529133 101.051995514764  C 209.887230383647 90.2774798285064  171.538797302743 43.8937214872273  211.920102600547 17.1781124478551  C 220.261475656441 11.6595968929619  231.96218276049 6.98030530825724  248.782334187686 3.62745097619234  C 250.499564289941 3.28514594924786  252.270154906556 2.95666651930196  254.095979028371 2.64253114592327  C 257.630821852075 2.03435692092967  261.072654925506 1.54996887343987  264.430333637428 1.17758141407057  C 279.493546562162 -0.493022616941175  292.863070806382 0.0904945278095965  305.338451653412 1.86402232148544  C 333.893666218792 5.92349491851928  357.764303541409 16.2176462282941  386.538581878145 19.9855680276305  C 428.891500946636 25.7665803215328  441.079805742022 30.0636743796908  513.597339083619 37.3286049093376  C 582.84417090697 44.2658709664308  581.842686019031 31.4877042985411  639.579327160233 45.5437276427779  C 728.701888626133 67.2406739788011  763.407776979127 110.351918095473  763.407776979127 110.351918095473  " stroke-width="1" stroke="#00ffff" fill="none" transform="matrix(1 0 0 1 122 855 )" />
  </g>
</svg>