<?xml version="1.0" encoding="utf-8"?>
<svg version="1.1" xmlns:xlink="http://www.w3.org/1999/xlink" width="1021px" height="232px" xmlns="http://www.w3.org/2000/svg">
  <g transform="matrix(1 0 0 1 -124 -260 )">
    <path d="M 125 275  A 14 14 0 0 1 139 261 L 1130 261  A 14 14 0 0 1 1144 275 L 1144 477  A 14 14 0 0 1 1130 491 L 139 491  A 14 14 0 0 1 125 477 L 125 275  Z " fill-rule="nonzero" fill="#123f73" stroke="none" fill-opacity="0.298039215686275" />
    <path d="M 124.5 275  A 14.5 14.5 0 0 1 139 260.5 L 1130 260.5  A 14.5 14.5 0 0 1 1144.5 275 L 1144.5 477  A 14.5 14.5 0 0 1 1130 491.5 L 139 491.5  A 14.5 14.5 0 0 1 124.5 477 L 124.5 275  Z " stroke-width="1" stroke="#064a9b" fill="none" stroke-opacity="0.996078431372549" />
  </g>
</svg>