<?xml version="1.0" encoding="utf-8"?>
<svg version="1.1" xmlns:xlink="http://www.w3.org/1999/xlink" width="7px" height="10px" xmlns="http://www.w3.org/2000/svg">
  <g transform="matrix(1 0 0 1 -1306 -405 )">
    <path d="M 1309.5 406  C 1310.9 406  1312 407.76  1312 410  C 1312 412.24  1310.9 414  1309.5 414  C 1308.1 414  1307 412.24  1307 410  C 1307 407.76  1308.1 406  1309.5 406  Z " fill-rule="nonzero" fill="#ffffff" stroke="none" fill-opacity="0.996078431372549" />
    <path d="M 1309.5 406  C 1310.9 406  1312 407.76  1312 410  C 1312 412.24  1310.9 414  1309.5 414  C 1308.1 414  1307 412.24  1307 410  C 1307 407.76  1308.1 406  1309.5 406  Z " stroke-width="2" stroke="#0a84ff" fill="none" />
  </g>
</svg>