<?xml version="1.0" encoding="utf-8"?>
<svg version="1.1" xmlns:xlink="http://www.w3.org/1999/xlink" width="466px" height="6px" preserveAspectRatio="xMinYMid meet" viewBox="1346 947  466 4" xmlns="http://www.w3.org/2000/svg">
  <path d="M 1351 945.5  A 3 3 0 0 0 1348 948.5 A 3 3 0 0 0 1351 951.5 A 3 3 0 0 0 1354 948.5 A 3 3 0 0 0 1351 945.5 Z M 1806 945.5  A 3 3 0 0 0 1803 948.5 A 3 3 0 0 0 1806 951.5 A 3 3 0 0 0 1809 948.5 A 3 3 0 0 0 1806 945.5 Z " fill-rule="nonzero" fill="#0174f3" stroke="none" />
  <path d="M 1349 948.5  L 1808 948.5  " stroke-width="1" stroke="#0174f3" fill="none" />
</svg>