<?xml version="1.0" encoding="utf-8"?>
<svg version="1.1" xmlns:xlink="http://www.w3.org/1999/xlink" width="457px" height="313px" xmlns="http://www.w3.org/2000/svg">
  <g transform="matrix(1 0 0 1 -17 -726 )">
    <path d="M 18 741  A 14 14 0 0 1 32 727 L 459 727  A 14 14 0 0 1 473 741 L 473 1024  A 14 14 0 0 1 459 1038 L 32 1038  A 14 14 0 0 1 18 1024 L 18 741  Z " fill-rule="nonzero" fill="#123f73" stroke="none" fill-opacity="0.298039215686275" />
    <path d="M 17.5 741  A 14.5 14.5 0 0 1 32 726.5 L 459 726.5  A 14.5 14.5 0 0 1 473.5 741 L 473.5 1024  A 14.5 14.5 0 0 1 459 1038.5 L 32 1038.5  A 14.5 14.5 0 0 1 17.5 1024 L 17.5 741  Z " stroke-width="1" stroke="#064a9b" fill="none" stroke-opacity="0.996078431372549" />
  </g>
</svg>