<?xml version="1.0" encoding="utf-8"?>
<svg version="1.1" xmlns:xlink="http://www.w3.org/1999/xlink" width="563px" height="213px" xmlns="http://www.w3.org/2000/svg">
  <g transform="matrix(1 0 0 1 -17 -202 )">
    <path d="M 18 217  A 14 14 0 0 1 32 203 L 565 203  A 14 14 0 0 1 579 217 L 579 400  A 14 14 0 0 1 565 414 L 32 414  A 14 14 0 0 1 18 400 L 18 217  Z " fill-rule="nonzero" fill="#123f73" stroke="none" fill-opacity="0.298039215686275" />
    <path d="M 17.5 217  A 14.5 14.5 0 0 1 32 202.5 L 565 202.5  A 14.5 14.5 0 0 1 579.5 217 L 579.5 400  A 14.5 14.5 0 0 1 565 414.5 L 32 414.5  A 14.5 14.5 0 0 1 17.5 400 L 17.5 217  Z " stroke-width="1" stroke="#064a9b" fill="none" stroke-opacity="0.996078431372549" />
  </g>
</svg>