<?xml version="1.0" encoding="utf-8"?>
<svg version="1.1" xmlns:xlink="http://www.w3.org/1999/xlink" width="276px" height="230px" xmlns="http://www.w3.org/2000/svg">
  <defs>
    <mask fill="white" id="clip410">
      <path d="M 0 115  L 19.1556919800248 83.0738466999587  L 19.4341187835457 82.6098020274237  L 69 0  L 207 0  L 276 115  L 207 230  L 69 230  L 0 115  Z " fill-rule="evenodd" />
    </mask>
  </defs>
  <g transform="matrix(1 0 0 1 -212 -676 )">
    <path d="M 0 115  L 19.1556919800248 83.0738466999587  L 19.4341187835457 82.6098020274237  L 69 0  L 207 0  L 276 115  L 207 230  L 69 230  L 0 115  Z " fill-rule="nonzero" fill="#0442e3" stroke="none" fill-opacity="0.145098039215686" transform="matrix(1 0 0 1 212 676 )" />
    <path d="M 0 115  L 19.1556919800248 83.0738466999587  L 19.4341187835457 82.6098020274237  L 69 0  L 207 0  L 276 115  L 207 230  L 69 230  L 0 115  Z " stroke-width="2" stroke="#0000bf" fill="none" stroke-opacity="0.996078431372549" transform="matrix(1 0 0 1 212 676 )" mask="url(#clip410)" />
  </g>
</svg>