<?xml version="1.0" encoding="utf-8"?>
<svg version="1.1" xmlns:xlink="http://www.w3.org/1999/xlink" width="212px" height="185px" xmlns="http://www.w3.org/2000/svg">
  <defs>
    <mask fill="white" id="clip507">
      <path d="M 171.178911376453 184.674313077817  L 60.1619792638708 178.049226761261  L 0.355133765860817 87.2115409059181  L 60.928672804145 0.925754067659938  L 157.294686384506 16.3869808892428  L 211.849147937773 86.0205020522925  L 171.178911376453 184.674313077817  Z " fill-rule="evenodd" />
    </mask>
  </defs>
  <g transform="matrix(1 0 0 1 -234 -698 )">
    <path d="M 171.178911376453 184.674313077817  L 60.1619792638708 178.049226761261  L 0.355133765860817 87.2115409059181  L 60.928672804145 0.925754067659938  L 157.294686384506 16.3869808892428  L 211.849147937773 86.0205020522925  L 171.178911376453 184.674313077817  Z " fill-rule="nonzero" fill="#0141e1" stroke="none" fill-opacity="0.435294117647059" transform="matrix(1 0 0 1 234 698 )" />
    <path d="M 171.178911376453 184.674313077817  L 60.1619792638708 178.049226761261  L 0.355133765860817 87.2115409059181  L 60.928672804145 0.925754067659938  L 157.294686384506 16.3869808892428  L 211.849147937773 86.0205020522925  L 171.178911376453 184.674313077817  Z " stroke-width="2" stroke="#0543e5" fill="none" stroke-opacity="0.317647058823529" transform="matrix(1 0 0 1 234 698 )" mask="url(#clip507)" />
  </g>
</svg>