<?xml version="1.0" encoding="utf-8"?>
<svg version="1.1" xmlns:xlink="http://www.w3.org/1999/xlink" width="8px" height="8px" xmlns="http://www.w3.org/2000/svg">
  <g transform="matrix(1 0 0 1 -344 -687 )">
    <path d="M 348 687.5  C 349.96 687.5  351.5 689.04  351.5 691  C 351.5 692.96  349.96 694.5  348 694.5  C 346.04 694.5  344.5 692.96  344.5 691  C 344.5 689.04  346.04 687.5  348 687.5  Z " fill-rule="nonzero" fill="#0141e1" stroke="none" fill-opacity="0.996078431372549" />
    <path d="M 348 687.5  C 349.96 687.5  351.5 689.04  351.5 691  C 351.5 692.96  349.96 694.5  348 694.5  C 346.04 694.5  344.5 692.96  344.5 691  C 344.5 689.04  346.04 687.5  348 687.5  Z " stroke-width="1" stroke="#0543e5" fill="none" stroke-opacity="0.317647058823529" />
  </g>
</svg>