<?xml version="1.0" encoding="utf-8"?>
<svg version="1.1" xmlns:xlink="http://www.w3.org/1999/xlink" width="83px" height="28px" xmlns="http://www.w3.org/2000/svg">
  <defs>
    <mask fill="white" id="clip541">
      <path d="M 8.23140495867769 28  C 3.62181818181816 28  0 21.84  0 14  C 0 6.16  3.62181818181816 0  8.23140495867769 0  L 74.7685950413223 0  C 79.3781818181818 0  83 6.16  83 14  C 83 21.84  79.3781818181818 28  74.7685950413223 28  L 43.2529843893487 28  L 8.23140495867769 28  Z " fill-rule="evenodd" />
    </mask>
  </defs>
  <g transform="matrix(1 0 0 1 -1483 -147 )">
    <path d="M 8.23140495867769 28  C 3.62181818181816 28  0 21.84  0 14  C 0 6.16  3.62181818181816 0  8.23140495867769 0  L 74.7685950413223 0  C 79.3781818181818 0  83 6.16  83 14  C 83 21.84  79.3781818181818 28  74.7685950413223 28  L 43.2529843893487 28  L 8.23140495867769 28  Z " fill-rule="nonzero" fill="#95f204" stroke="none" fill-opacity="0.101960784313725" transform="matrix(1 0 0 1 1483 147 )" />
    <path d="M 8.23140495867769 28  C 3.62181818181816 28  0 21.84  0 14  C 0 6.16  3.62181818181816 0  8.23140495867769 0  L 74.7685950413223 0  C 79.3781818181818 0  83 6.16  83 14  C 83 21.84  79.3781818181818 28  74.7685950413223 28  L 43.2529843893487 28  L 8.23140495867769 28  Z " stroke-width="2" stroke="#95f204" fill="none" transform="matrix(1 0 0 1 1483 147 )" mask="url(#clip541)" />
  </g>
</svg>