<?xml version="1.0" encoding="utf-8"?>
<svg version="1.1" xmlns:xlink="http://www.w3.org/1999/xlink" width="931px" height="232px" xmlns="http://www.w3.org/2000/svg">
  <g transform="matrix(1 0 0 1 -1292 -2364 )">
    <path d="M 1293 2379  A 14 14 0 0 1 1307 2365 L 2208 2365  A 14 14 0 0 1 2222 2379 L 2222 2581  A 14 14 0 0 1 2208 2595 L 1307 2595  A 14 14 0 0 1 1293 2581 L 1293 2379  Z " fill-rule="nonzero" fill="#123f73" stroke="none" fill-opacity="0.298039215686275" />
    <path d="M 1292.5 2379  A 14.5 14.5 0 0 1 1307 2364.5 L 2208 2364.5  A 14.5 14.5 0 0 1 2222.5 2379 L 2222.5 2581  A 14.5 14.5 0 0 1 2208 2595.5 L 1307 2595.5  A 14.5 14.5 0 0 1 1292.5 2581 L 1292.5 2379  Z " stroke-width="1" stroke="#064a9b" fill="none" stroke-opacity="0.996078431372549" />
  </g>
</svg>