<?xml version="1.0" encoding="utf-8"?>
<svg version="1.1" xmlns:xlink="http://www.w3.org/1999/xlink" width="10px" height="10px" xmlns="http://www.w3.org/2000/svg">
  <g transform="matrix(1 0 0 1 -259 -773 )">
    <path d="M 264 774  C 266.24 774  268 775.76  268 778  C 268 780.24  266.24 782  264 782  C 261.76 782  260 780.24  260 778  C 260 775.76  261.76 774  264 774  Z " fill-rule="nonzero" fill="#ffffff" stroke="none" fill-opacity="0.996078431372549" />
    <path d="M 264 774  C 266.24 774  268 775.76  268 778  C 268 780.24  266.24 782  264 782  C 261.76 782  260 780.24  260 778  C 260 775.76  261.76 774  264 774  Z " stroke-width="2" stroke="#0a84ff" fill="none" />
  </g>
</svg>