<?xml version="1.0" encoding="utf-8"?>
<svg version="1.1" xmlns:xlink="http://www.w3.org/1999/xlink" width="7px" height="7px" xmlns="http://www.w3.org/2000/svg">
  <g transform="matrix(1 0 0 1 -930 -735 )">
    <path d="M 933.5 736  C 934.9 736  936 737.1  936 738.5  C 936 739.9  934.9 741  933.5 741  C 932.1 741  931 739.9  931 738.5  C 931 737.1  932.1 736  933.5 736  Z " fill-rule="nonzero" fill="#ffffff" stroke="none" fill-opacity="0.996078431372549" />
    <path d="M 933.5 736  C 934.9 736  936 737.1  936 738.5  C 936 739.9  934.9 741  933.5 741  C 932.1 741  931 739.9  931 738.5  C 931 737.1  932.1 736  933.5 736  Z " stroke-width="2" stroke="#1890ff" fill="none" />
  </g>
</svg>