<?xml version="1.0" encoding="utf-8"?>
<svg version="1.1" xmlns:xlink="http://www.w3.org/1999/xlink" width="1021px" height="232px" xmlns="http://www.w3.org/2000/svg">
  <g transform="matrix(1 0 0 1 -124 -366 )">
    <path d="M 125 381  A 14 14 0 0 1 139 367 L 1130 367  A 14 14 0 0 1 1144 381 L 1144 583  A 14 14 0 0 1 1130 597 L 139 597  A 14 14 0 0 1 125 583 L 125 381  Z " fill-rule="nonzero" fill="#123f73" stroke="none" fill-opacity="0.298039215686275" />
    <path d="M 124.5 381  A 14.5 14.5 0 0 1 139 366.5 L 1130 366.5  A 14.5 14.5 0 0 1 1144.5 381 L 1144.5 583  A 14.5 14.5 0 0 1 1130 597.5 L 139 597.5  A 14.5 14.5 0 0 1 124.5 583 L 124.5 381  Z " stroke-width="1" stroke="#064a9b" fill="none" stroke-opacity="0.996078431372549" />
  </g>
</svg>