<?xml version="1.0" encoding="utf-8"?>
<svg version="1.1" xmlns:xlink="http://www.w3.org/1999/xlink" width="1035px" height="241px" xmlns="http://www.w3.org/2000/svg">
  <g transform="matrix(1 0 0 1 -124 -635 )">
    <path d="M 125 650  A 14 14 0 0 1 139 636 L 1144 636  A 14 14 0 0 1 1158 650 L 1158 861  A 14 14 0 0 1 1144 875 L 139 875  A 14 14 0 0 1 125 861 L 125 650  Z " fill-rule="nonzero" fill="#123f73" stroke="none" fill-opacity="0.298039215686275" />
    <path d="M 124.5 650  A 14.5 14.5 0 0 1 139 635.5 L 1144 635.5  A 14.5 14.5 0 0 1 1158.5 650 L 1158.5 861  A 14.5 14.5 0 0 1 1144 875.5 L 139 875.5  A 14.5 14.5 0 0 1 124.5 861 L 124.5 650  Z " stroke-width="1" stroke="#064a9b" fill="none" stroke-opacity="0.996078431372549" />
  </g>
</svg>