<?xml version="1.0" encoding="utf-8"?>
<svg version="1.1" xmlns:xlink="http://www.w3.org/1999/xlink" width="80px" height="35px" xmlns="http://www.w3.org/2000/svg">
  <g transform="matrix(1 0 0 1 -399 -219 )">
    <path d="M 400 224  A 4 4 0 0 1 404 220 L 474 220  A 4 4 0 0 1 478 224 L 478 249  A 4 4 0 0 1 474 253 L 404 253  A 4 4 0 0 1 400 249 L 400 224  Z " fill-rule="nonzero" fill="#f0f7ff" stroke="none" />
    <path d="M 399.5 224  A 4.5 4.5 0 0 1 404 219.5 L 474 219.5  A 4.5 4.5 0 0 1 478.5 224 L 478.5 249  A 4.5 4.5 0 0 1 474 253.5 L 404 253.5  A 4.5 4.5 0 0 1 399.5 249 L 399.5 224  Z " stroke-width="1" stroke="#7abbff" fill="none" stroke-opacity="0.996078431372549" />
  </g>
</svg>