<?xml version="1.0" encoding="utf-8"?>
<svg version="1.1" xmlns:xlink="http://www.w3.org/1999/xlink" width="931px" height="228px" xmlns="http://www.w3.org/2000/svg">
  <g transform="matrix(1 0 0 1 -43 -802 )">
    <path d="M 44 817  A 14 14 0 0 1 58 803 L 959 803  A 14 14 0 0 1 973 817 L 973 1015  A 14 14 0 0 1 959 1029 L 58 1029  A 14 14 0 0 1 44 1015 L 44 817  Z " fill-rule="nonzero" fill="#123f73" stroke="none" fill-opacity="0.298039215686275" />
    <path d="M 43.5 817  A 14.5 14.5 0 0 1 58 802.5 L 959 802.5  A 14.5 14.5 0 0 1 973.5 817 L 973.5 1015  A 14.5 14.5 0 0 1 959 1029.5 L 58 1029.5  A 14.5 14.5 0 0 1 43.5 1015 L 43.5 817  Z " stroke-width="1" stroke="#064a9b" fill="none" stroke-opacity="0.996078431372549" />
  </g>
</svg>