<?xml version="1.0" encoding="utf-8"?>
<svg version="1.1" xmlns:xlink="http://www.w3.org/1999/xlink" width="6px" height="7px" xmlns="http://www.w3.org/2000/svg">
  <g transform="matrix(1 0 0 1 -768 -902 )">
    <path d="M 771 903  C 772.12 903  773 904.1  773 905.5  C 773 906.9  772.12 908  771 908  C 769.88 908  769 906.9  769 905.5  C 769 904.1  769.88 903  771 903  Z " fill-rule="nonzero" fill="#ffffff" stroke="none" fill-opacity="0.996078431372549" />
    <path d="M 771 903  C 772.12 903  773 904.1  773 905.5  C 773 906.9  772.12 908  771 908  C 769.88 908  769 906.9  769 905.5  C 769 904.1  769.88 903  771 903  Z " stroke-width="2" stroke="#1890ff" fill="none" />
  </g>
</svg>