<?xml version="1.0" encoding="utf-8"?>
<svg version="1.1" xmlns:xlink="http://www.w3.org/1999/xlink" width="931px" height="232px" xmlns="http://www.w3.org/2000/svg">
  <g transform="matrix(1 0 0 1 -994 -802 )">
    <path d="M 995 817  A 14 14 0 0 1 1009 803 L 1910 803  A 14 14 0 0 1 1924 817 L 1924 1019  A 14 14 0 0 1 1910 1033 L 1009 1033  A 14 14 0 0 1 995 1019 L 995 817  Z " fill-rule="nonzero" fill="#123f73" stroke="none" fill-opacity="0.298039215686275" />
    <path d="M 994.5 817  A 14.5 14.5 0 0 1 1009 802.5 L 1910 802.5  A 14.5 14.5 0 0 1 1924.5 817 L 1924.5 1019  A 14.5 14.5 0 0 1 1910 1033.5 L 1009 1033.5  A 14.5 14.5 0 0 1 994.5 1019 L 994.5 817  Z " stroke-width="1" stroke="#064a9b" fill="none" stroke-opacity="0.996078431372549" />
  </g>
</svg>