<?xml version="1.0" encoding="utf-8"?>
<svg version="1.1" xmlns:xlink="http://www.w3.org/1999/xlink" width="563px" height="213px" xmlns="http://www.w3.org/2000/svg">
  <g transform="matrix(1 0 0 1 -17 -172 )">
    <path d="M 18 187  A 14 14 0 0 1 32 173 L 565 173  A 14 14 0 0 1 579 187 L 579 370  A 14 14 0 0 1 565 384 L 32 384  A 14 14 0 0 1 18 370 L 18 187  Z " fill-rule="nonzero" fill="#123f73" stroke="none" fill-opacity="0.298039215686275" />
    <path d="M 17.5 187  A 14.5 14.5 0 0 1 32 172.5 L 565 172.5  A 14.5 14.5 0 0 1 579.5 187 L 579.5 370  A 14.5 14.5 0 0 1 565 384.5 L 32 384.5  A 14.5 14.5 0 0 1 17.5 370 L 17.5 187  Z " stroke-width="1" stroke="#064a9b" fill="none" stroke-opacity="0.996078431372549" />
  </g>
</svg>