<?xml version="1.0" encoding="utf-8"?>
<svg version="1.1" xmlns:xlink="http://www.w3.org/1999/xlink" width="1343px" height="322px" xmlns="http://www.w3.org/2000/svg">
  <g transform="matrix(1 0 0 1 -17 -739 )">
    <path d="M 18 754  A 14 14 0 0 1 32 740 L 1345 740  A 14 14 0 0 1 1359 754 L 1359 1046  A 14 14 0 0 1 1345 1060 L 32 1060  A 14 14 0 0 1 18 1046 L 18 754  Z " fill-rule="nonzero" fill="#123f73" stroke="none" fill-opacity="0.298039215686275" />
    <path d="M 17.5 754  A 14.5 14.5 0 0 1 32 739.5 L 1345 739.5  A 14.5 14.5 0 0 1 1359.5 754 L 1359.5 1046  A 14.5 14.5 0 0 1 1345 1060.5 L 32 1060.5  A 14.5 14.5 0 0 1 17.5 1046 L 17.5 754  Z " stroke-width="1" stroke="#064a9b" fill="none" stroke-opacity="0.996078431372549" />
  </g>
</svg>