<?xml version="1.0" encoding="utf-8"?>
<svg version="1.1" xmlns:xlink="http://www.w3.org/1999/xlink" width="6px" height="6px" xmlns="http://www.w3.org/2000/svg">
  <g transform="matrix(1 0 0 1 -1785 -846 )">
    <path d="M 1788 847  C 1789.12 847  1790 847.88  1790 849  C 1790 850.12  1789.12 851  1788 851  C 1786.88 851  1786 850.12  1786 849  C 1786 847.88  1786.88 847  1788 847  Z " fill-rule="nonzero" fill="#ffffff" stroke="none" fill-opacity="0.996078431372549" />
    <path d="M 1788 847  C 1789.12 847  1790 847.88  1790 849  C 1790 850.12  1789.12 851  1788 851  C 1786.88 851  1786 850.12  1786 849  C 1786 847.88  1786.88 847  1788 847  Z " stroke-width="2" stroke="#13c2c2" fill="none" />
  </g>
</svg>