<?xml version="1.0" encoding="utf-8"?>
<svg version="1.1" xmlns:xlink="http://www.w3.org/1999/xlink" width="9px" height="9px" xmlns="http://www.w3.org/2000/svg">
  <g transform="matrix(1 0 0 1 -1483 -853 )">
    <path d="M 1487.5 854  C 1489.46 854  1491 855.54  1491 857.5  C 1491 859.46  1489.46 861  1487.5 861  C 1485.54 861  1484 859.46  1484 857.5  C 1484 855.54  1485.54 854  1487.5 854  Z " fill-rule="nonzero" fill="#ffffff" stroke="none" fill-opacity="0.996078431372549" />
    <path d="M 1487.5 854  C 1489.46 854  1491 855.54  1491 857.5  C 1491 859.46  1489.46 861  1487.5 861  C 1485.54 861  1484 859.46  1484 857.5  C 1484 855.54  1485.54 854  1487.5 854  Z " stroke-width="2" stroke="#13c2c2" fill="none" />
  </g>
</svg>