<?xml version="1.0" encoding="utf-8"?>
<svg version="1.1" xmlns:xlink="http://www.w3.org/1999/xlink" width="7px" height="7px" xmlns="http://www.w3.org/2000/svg">
  <defs>
    <linearGradient gradientUnits="userSpaceOnUse" x1="1413.5" y1="540" x2="1413.5" y2="547" id="LinearGradient1317">
      <stop id="Stop1318" stop-color="#409eff" stop-opacity="0.533333333333333" offset="0" />
      <stop id="Stop1319" stop-color="#4e7beb" offset="1" />
    </linearGradient>
    <linearGradient gradientUnits="userSpaceOnUse" x1="1413.5" y1="540" x2="1413.5" y2="547" id="LinearGradient1320">
      <stop id="Stop1321" stop-color="#409eff" offset="0" />
      <stop id="Stop1322" stop-color="#4e7beb" offset="1" />
    </linearGradient>
  </defs>
  <g transform="matrix(1 0 0 1 -1410 -540 )">
    <path d="M 1413.5 541  C 1414.9 541  1416 542.1  1416 543.5  C 1416 544.9  1414.9 546  1413.5 546  C 1412.1 546  1411 544.9  1411 543.5  C 1411 542.1  1412.1 541  1413.5 541  Z " fill-rule="nonzero" fill="url(#LinearGradient1317)" stroke="none" />
    <path d="M 1413.5 541  C 1414.9 541  1416 542.1  1416 543.5  C 1416 544.9  1414.9 546  1413.5 546  C 1412.1 546  1411 544.9  1411 543.5  C 1411 542.1  1412.1 541  1413.5 541  Z " stroke-width="2" stroke="url(#LinearGradient1320)" fill="none" />
  </g>
</svg>