<?xml version="1.0" encoding="utf-8"?>
<svg version="1.1" xmlns:xlink="http://www.w3.org/1999/xlink" width="539px" height="260px" xmlns="http://www.w3.org/2000/svg">
  <g transform="matrix(1 0 0 1 -1370 -464 )">
    <path d="M 1371 479  A 14 14 0 0 1 1385 465 L 1894 465  A 14 14 0 0 1 1908 479 L 1908 709  A 14 14 0 0 1 1894 723 L 1385 723  A 14 14 0 0 1 1371 709 L 1371 479  Z " fill-rule="nonzero" fill="#123f73" stroke="none" fill-opacity="0.298039215686275" />
    <path d="M 1370.5 479  A 14.5 14.5 0 0 1 1385 464.5 L 1894 464.5  A 14.5 14.5 0 0 1 1908.5 479 L 1908.5 709  A 14.5 14.5 0 0 1 1894 723.5 L 1385 723.5  A 14.5 14.5 0 0 1 1370.5 709 L 1370.5 479  Z " stroke-width="1" stroke="#064a9b" fill="none" stroke-opacity="0.996078431372549" />
  </g>
</svg>