<?xml version="1.0" encoding="utf-8"?>
<svg version="1.1" xmlns:xlink="http://www.w3.org/1999/xlink" width="22px" height="20px" preserveAspectRatio="xMinYMid meet" viewBox="606 499  22 18" xmlns="http://www.w3.org/2000/svg">
  <g transform="matrix(-1 0 0 -1 1234 1016 )">
    <path d="M 163 505.5  A 3 3 0 0 0 160 508.5 A 3 3 0 0 0 163 511.5 A 3 3 0 0 0 166 508.5 A 3 3 0 0 0 163 505.5 Z M 618 505.5  A 3 3 0 0 0 615 508.5 A 3 3 0 0 0 618 511.5 A 3 3 0 0 0 621 508.5 A 3 3 0 0 0 618 505.5 Z " fill-rule="nonzero" fill="#0174f3" stroke="none" />
    <path d="M 161 508.5  L 620 508.5  " stroke-width="1" stroke="#0174f3" fill="none" />
  </g>
</svg>