<?xml version="1.0" encoding="utf-8"?>
<svg version="1.1" xmlns:xlink="http://www.w3.org/1999/xlink" width="22px" height="20px" preserveAspectRatio="xMinYMid meet" viewBox="152 269  22 18" xmlns="http://www.w3.org/2000/svg">
  <path d="M 163 274.5  A 3 3 0 0 0 160 277.5 A 3 3 0 0 0 163 280.5 A 3 3 0 0 0 166 277.5 A 3 3 0 0 0 163 274.5 Z M 618 274.5  A 3 3 0 0 0 615 277.5 A 3 3 0 0 0 618 280.5 A 3 3 0 0 0 621 277.5 A 3 3 0 0 0 618 274.5 Z " fill-rule="nonzero" fill="#0174f3" stroke="none" />
  <path d="M 161 277.5  L 620 277.5  " stroke-width="1" stroke="#0174f3" fill="none" />
</svg>