<?xml version="1.0" encoding="utf-8"?>
<svg version="1.1" xmlns:xlink="http://www.w3.org/1999/xlink" width="1892px" height="292px" xmlns="http://www.w3.org/2000/svg">
  <g transform="matrix(1 0 0 1 -214 -808 )">
    <path d="M 215 823  A 14 14 0 0 1 229 809 L 2091 809  A 14 14 0 0 1 2105 823 L 2105 1085  A 14 14 0 0 1 2091 1099 L 229 1099  A 14 14 0 0 1 215 1085 L 215 823  Z " fill-rule="nonzero" fill="#123f73" stroke="none" fill-opacity="0.298039215686275" />
    <path d="M 214.5 823  A 14.5 14.5 0 0 1 229 808.5 L 2091 808.5  A 14.5 14.5 0 0 1 2105.5 823 L 2105.5 1085  A 14.5 14.5 0 0 1 2091 1099.5 L 229 1099.5  A 14.5 14.5 0 0 1 214.5 1085 L 214.5 823  Z " stroke-width="1" stroke="#064a9b" fill="none" stroke-opacity="0.996078431372549" />
  </g>
</svg>