<?xml version="1.0" encoding="utf-8"?>
<svg version="1.1" xmlns:xlink="http://www.w3.org/1999/xlink" width="645px" height="232px" xmlns="http://www.w3.org/2000/svg">
  <g transform="matrix(1 0 0 1 -1488 -567 )">
    <path d="M 1489 582  A 14 14 0 0 1 1503 568 L 2118 568  A 14 14 0 0 1 2132 582 L 2132 784  A 14 14 0 0 1 2118 798 L 1503 798  A 14 14 0 0 1 1489 784 L 1489 582  Z " fill-rule="nonzero" fill="#123f73" stroke="none" fill-opacity="0.298039215686275" />
    <path d="M 1488.5 582  A 14.5 14.5 0 0 1 1503 567.5 L 2118 567.5  A 14.5 14.5 0 0 1 2132.5 582 L 2132.5 784  A 14.5 14.5 0 0 1 2118 798.5 L 1503 798.5  A 14.5 14.5 0 0 1 1488.5 784 L 1488.5 582  Z " stroke-width="1" stroke="#064a9b" fill="none" stroke-opacity="0.996078431372549" />
  </g>
</svg>