<?xml version="1.0" encoding="utf-8"?>
<svg version="1.1" xmlns:xlink="http://www.w3.org/1999/xlink" width="1741px" height="108px" xmlns="http://www.w3.org/2000/svg">
  <defs>
    <linearGradient gradientUnits="userSpaceOnUse" x1="870" y1="0" x2="870" y2="107" id="LinearGradient1323">
      <stop id="Stop1324" stop-color="#02a7f0" offset="0" />
      <stop id="Stop1325" stop-color="#2f54eb" stop-opacity="0.4" offset="1" />
    </linearGradient>
  </defs>
  <g transform="matrix(1 0 0 1 -297 -914 )">
    <path d="M 5.5 106.452685421995  L 1740.5 106.452685421995  L 1740.5 79.0391602144135  C 1740.5 79.0391602144135  1613.75484308636 60.8416104166681  1451.51238591917 60.2098662207357  C 1287.81970724469 59.5724751119296  1305.92699291054 87.5608222054248  1168.6962190352 79.0391602144135  C 990.955889693219 68.001963774792  1081.46189320064 33.7284475043991  896.466753585398 12.9724080267559  C 750.884881925962 -3.36155124199642  749.239494856059 -2.67787776008833  590.762396824397 6.6280507515759  C 402.375840202853 17.6902916068976  473.761725227006 38.8138660934099  285.804051260852 56.3650583244963  C 141.655402932722 69.8254325846813  5.5 66.2934782608698  5.5 66.2934782608698  L 5.5 106.452685421995  Z " fill-rule="nonzero" fill="url(#LinearGradient1323)" stroke="none" transform="matrix(1 0 0 1 297 914 )" />
    <path d="M 1740.5 106.452685421995  L 1740.5 79.0391602144135  C 1740.5 79.0391602144135  1613.75484308636 60.8416104166681  1451.51238591917 60.2098662207357  C 1287.81970724469 59.5724751119296  1305.92699291054 87.5608222054248  1168.6962190352 79.0391602144135  C 990.955889693219 68.001963774792  1081.46189320064 33.7284475043991  896.466753585398 12.9724080267559  C 750.884881925962 -3.36155124199642  749.239494856059 -2.67787776008833  590.762396824397 6.6280507515759  C 402.375840202853 17.6902916068976  473.761725227006 38.8138660934099  285.804051260852 56.3650583244963  C 141.655402932722 69.8254325846813  5.5 66.2934782608698  5.5 66.2934782608698  L 5.5 106.452685421995  " stroke-width="1" stroke="#13c2c2" fill="none" transform="matrix(1 0 0 1 297 914 )" />
  </g>
</svg>