<?xml version="1.0" encoding="utf-8"?>
<svg version="1.1" xmlns:xlink="http://www.w3.org/1999/xlink" width="130px" height="129px" xmlns="http://www.w3.org/2000/svg">
  <g transform="matrix(1 0 0 1 -1486 -532 )">
    <path d="M 1551 532  C 1587.4 532  1616 560.38  1616 596.5  C 1616 632.62  1587.4 661  1551 661  C 1514.6 661  1486 632.62  1486 596.5  C 1486 560.38  1514.6 532  1551 532  Z " fill-rule="nonzero" fill="#041120" stroke="none" />
    <path d="M 1551 532.5  C 1587.12 532.5  1615.5 560.66  1615.5 596.5  C 1615.5 632.34  1587.12 660.5  1551 660.5  C 1514.88 660.5  1486.5 632.34  1486.5 596.5  C 1486.5 560.66  1514.88 532.5  1551 532.5  Z " stroke-width="1" stroke="#ffffff" fill="none" />
  </g>
</svg>