<?xml version="1.0" encoding="utf-8"?>
<svg version="1.1" xmlns:xlink="http://www.w3.org/1999/xlink" width="80px" height="35px" xmlns="http://www.w3.org/2000/svg">
  <g transform="matrix(1 0 0 1 -684 -204 )">
    <path d="M 684.5 209  A 4.5 4.5 0 0 1 689 204.5 L 759 204.5  A 4.5 4.5 0 0 1 763.5 209 L 763.5 234  A 4.5 4.5 0 0 1 759 238.5 L 689 238.5  A 4.5 4.5 0 0 1 684.5 234 L 684.5 209  Z " fill-rule="nonzero" fill="#f9f9f9" stroke="none" fill-opacity="0" />
    <path d="M 684.5 209  A 4.5 4.5 0 0 1 689 204.5 L 759 204.5  A 4.5 4.5 0 0 1 763.5 209 L 763.5 234  A 4.5 4.5 0 0 1 759 238.5 L 689 238.5  A 4.5 4.5 0 0 1 684.5 234 L 684.5 209  Z " stroke-width="1" stroke="#e4e4e4" fill="none" />
  </g>
</svg>