<?xml version="1.0" encoding="utf-8"?>
<svg version="1.1" xmlns:xlink="http://www.w3.org/1999/xlink" width="80px" height="35px" xmlns="http://www.w3.org/2000/svg">
  <g transform="matrix(1 0 0 1 -684 -204 )">
    <path d="M 685 209  A 4 4 0 0 1 689 205 L 759 205  A 4 4 0 0 1 763 209 L 763 234  A 4 4 0 0 1 759 238 L 689 238  A 4 4 0 0 1 685 234 L 685 209  Z " fill-rule="nonzero" fill="#f0f7ff" stroke="none" />
    <path d="M 684.5 209  A 4.5 4.5 0 0 1 689 204.5 L 759 204.5  A 4.5 4.5 0 0 1 763.5 209 L 763.5 234  A 4.5 4.5 0 0 1 759 238.5 L 689 238.5  A 4.5 4.5 0 0 1 684.5 234 L 684.5 209  Z " stroke-width="1" stroke="#7abbff" fill="none" stroke-opacity="0.996078431372549" />
  </g>
</svg>