<?xml version="1.0" encoding="utf-8"?>
<svg version="1.1" xmlns:xlink="http://www.w3.org/1999/xlink" width="931px" height="292px" xmlns="http://www.w3.org/2000/svg">
  <g transform="matrix(1 0 0 1 -24 -2426 )">
    <path d="M 25 2441  A 14 14 0 0 1 39 2427 L 940 2427  A 14 14 0 0 1 954 2441 L 954 2703  A 14 14 0 0 1 940 2717 L 39 2717  A 14 14 0 0 1 25 2703 L 25 2441  Z " fill-rule="nonzero" fill="#123f73" stroke="none" fill-opacity="0.298039215686275" />
    <path d="M 24.5 2441  A 14.5 14.5 0 0 1 39 2426.5 L 940 2426.5  A 14.5 14.5 0 0 1 954.5 2441 L 954.5 2703  A 14.5 14.5 0 0 1 940 2717.5 L 39 2717.5  A 14.5 14.5 0 0 1 24.5 2703 L 24.5 2441  Z " stroke-width="1" stroke="#064a9b" fill="none" stroke-opacity="0.996078431372549" />
  </g>
</svg>