<?xml version="1.0" encoding="utf-8"?>
<svg version="1.1" xmlns:xlink="http://www.w3.org/1999/xlink" width="883px" height="108px" xmlns="http://www.w3.org/2000/svg">
  <defs>
    <linearGradient gradientUnits="userSpaceOnUse" x1="441" y1="0" x2="441" y2="107" id="LinearGradient995">
      <stop id="Stop996" stop-color="#02a7f0" offset="0" />
      <stop id="Stop997" stop-color="#2f54eb" stop-opacity="0.4" offset="1" />
    </linearGradient>
  </defs>
  <g transform="matrix(1 0 0 1 -964 -877 )">
    <path d="M 3.5 106.452685421995  L 882.5 106.452685421995  L 882.5 79.0391602144135  C 882.5 79.0391602144135  818.006765288603 60.8416104166681  735.766623207301 60.2098662207357  C 652.791368844721 59.5724751119296  661.969889509825 87.5608222054248  592.408083441982 79.0391602144135  C 502.312123396218 68.001963774792  548.189304484461 33.7284475043991  454.41590612777 12.9724080267559  C 380.620957390056 -3.36155124199642  379.786916358071 -2.67787776008833  299.455421838574 6.6280507515759  C 203.962925895929 17.6902916068976  240.148184856448 38.8138660934099  144.873088052914 56.3650583244963  C 71.8046352796903 69.8254325846813  3.5 66.2934782608698  3.5 66.2934782608698  L 3.5 106.452685421995  Z " fill-rule="nonzero" fill="url(#LinearGradient995)" stroke="none" transform="matrix(1 0 0 1 964 877 )" />
    <path d="M 882.5 106.452685421995  L 882.5 79.0391602144135  C 882.5 79.0391602144135  818.006765288603 60.8416104166681  735.766623207301 60.2098662207357  C 652.791368844721 59.5724751119296  661.969889509825 87.5608222054248  592.408083441982 79.0391602144135  C 502.312123396218 68.001963774792  548.189304484461 33.7284475043991  454.41590612777 12.9724080267559  C 380.620957390056 -3.36155124199642  379.786916358071 -2.67787776008833  299.455421838574 6.6280507515759  C 203.962925895929 17.6902916068976  240.148184856448 38.8138660934099  144.873088052914 56.3650583244963  C 71.8046352796903 69.8254325846813  3.5 66.2934782608698  3.5 66.2934782608698  L 3.5 106.452685421995  " stroke-width="1" stroke="#13c2c2" fill="none" transform="matrix(1 0 0 1 964 877 )" />
  </g>
</svg>