<?xml version="1.0" encoding="utf-8"?>
<svg version="1.1" xmlns:xlink="http://www.w3.org/1999/xlink" width="770px" height="555px" xmlns="http://www.w3.org/2000/svg">
  <defs>
    <mask fill="white" id="clip602">
      <path d="M 0 555  L 0 0  L 93.4000000000015 0  L 112.599999999999 0  L 770 0  L 770 555  L 0 555  Z " fill-rule="evenodd" />
    </mask>
  </defs>
  <g transform="matrix(1 0 0 1 -600 -187 )">
    <path d="M 0 555  L 0 0  L 93.4000000000015 0  L 112.599999999999 0  L 770 0  L 770 555  L 0 555  Z " fill-rule="nonzero" fill="#123f73" stroke="none" fill-opacity="0.298039215686275" transform="matrix(1 0 0 1 600 187 )" />
    <path d="M 0 555  L 0 0  L 93.4000000000015 0  L 112.599999999999 0  L 770 0  L 770 555  L 0 555  Z " stroke-width="2" stroke="#064a9b" fill="none" stroke-opacity="0.996078431372549" transform="matrix(1 0 0 1 600 187 )" mask="url(#clip602)" />
  </g>
</svg>