<?xml version="1.0" encoding="utf-8"?>
<svg version="1.1" xmlns:xlink="http://www.w3.org/1999/xlink" width="563px" height="335px" xmlns="http://www.w3.org/2000/svg">
  <g transform="matrix(1 0 0 1 -17 -407 )">
    <path d="M 18 422  A 14 14 0 0 1 32 408 L 565 408  A 14 14 0 0 1 579 422 L 579 727  A 14 14 0 0 1 565 741 L 32 741  A 14 14 0 0 1 18 727 L 18 422  Z " fill-rule="nonzero" fill="#123f73" stroke="none" fill-opacity="0.298039215686275" />
    <path d="M 17.5 422  A 14.5 14.5 0 0 1 32 407.5 L 565 407.5  A 14.5 14.5 0 0 1 579.5 422 L 579.5 727  A 14.5 14.5 0 0 1 565 741.5 L 32 741.5  A 14.5 14.5 0 0 1 17.5 727 L 17.5 422  Z " stroke-width="1" stroke="#064a9b" fill="none" stroke-opacity="0.996078431372549" />
  </g>
</svg>