<?xml version="1.0" encoding="utf-8"?>
<svg version="1.1" xmlns:xlink="http://www.w3.org/1999/xlink" width="513px" height="547px" xmlns="http://www.w3.org/2000/svg">
  <g transform="matrix(1 0 0 1 -1360 -1436 )">
    <path d="M 1361 1451  A 14 14 0 0 1 1375 1437 L 1858 1437  A 14 14 0 0 1 1872 1451 L 1872 1968  A 14 14 0 0 1 1858 1982 L 1375 1982  A 14 14 0 0 1 1361 1968 L 1361 1451  Z " fill-rule="nonzero" fill="#123f73" stroke="none" fill-opacity="0.298039215686275" />
    <path d="M 1360.5 1451  A 14.5 14.5 0 0 1 1375 1436.5 L 1858 1436.5  A 14.5 14.5 0 0 1 1872.5 1451 L 1872.5 1968  A 14.5 14.5 0 0 1 1858 1982.5 L 1375 1982.5  A 14.5 14.5 0 0 1 1360.5 1968 L 1360.5 1451  Z " stroke-width="1" stroke="#064a9b" fill="none" stroke-opacity="0.996078431372549" />
  </g>
</svg>