<?xml version="1.0" encoding="utf-8"?>
<svg version="1.1" xmlns:xlink="http://www.w3.org/1999/xlink" width="563px" height="345px" xmlns="http://www.w3.org/2000/svg">
  <g transform="matrix(1 0 0 1 -17 -1650 )">
    <path d="M 18 1665  A 14 14 0 0 1 32 1651 L 565 1651  A 14 14 0 0 1 579 1665 L 579 1980  A 14 14 0 0 1 565 1994 L 32 1994  A 14 14 0 0 1 18 1980 L 18 1665  Z " fill-rule="nonzero" fill="#123f73" stroke="none" fill-opacity="0.298039215686275" />
    <path d="M 17.5 1665  A 14.5 14.5 0 0 1 32 1650.5 L 565 1650.5  A 14.5 14.5 0 0 1 579.5 1665 L 579.5 1980  A 14.5 14.5 0 0 1 565 1994.5 L 32 1994.5  A 14.5 14.5 0 0 1 17.5 1980 L 17.5 1665  Z " stroke-width="1" stroke="#064a9b" fill="none" stroke-opacity="0.996078431372549" />
  </g>
</svg>