<?xml version="1.0" encoding="utf-8"?>
<svg version="1.1" xmlns:xlink="http://www.w3.org/1999/xlink" width="38px" height="36px" xmlns="http://www.w3.org/2000/svg">
  <g transform="matrix(1 0 0 1 -593 -906 )">
    <path d="M 36.7211538461538 12.9073724007561  C 37.5737179487179 13.0434782608696  38 13.3913043478261  38 13.9508506616257  C 38 14.2835538752363  37.8020833333333 14.6465028355387  37.40625 15.0396975425331  L 29.1165865384615 23.069943289225  L 31.0805288461538 34.4120982986767  C 31.0957532051282 34.5179584120983  31.1033653846154 34.6691871455577  31.1033653846154 34.8657844990548  C 31.1033653846154 35.1833648393195  31.0234375 35.4517958412098  30.8635817307692 35.6710775047259  C 30.7037259615385 35.890359168242  30.4715544871795 36  30.1670673076923 36  C 29.8778044871795 36  29.5733173076923 35.9092627599244  29.2536057692308 35.7277882797732  L 19 30.3742911153119  L 8.74639423076923 35.7277882797732  C 8.41145833333333 35.9092627599244  8.10697115384615 36  7.83293269230769 36  C 7.51322115384615 36  7.2734375 35.890359168242  7.11358173076923 35.6710775047259  C 6.95372596153846 35.4517958412098  6.87379807692308 35.1833648393195  6.87379807692308 34.8657844990548  C 6.87379807692308 34.7750472589792  6.88902243589744 34.6238185255198  6.91947115384615 34.4120982986767  L 8.88341346153846 23.069943289225  L 0.570913461538462 15.0396975425331  C 0.190304487179487 14.6313799621928  0 14.2684310018904  0 13.9508506616257  C 0 13.3913043478261  0.426282051282051 13.0434782608696  1.27884615384615 12.9073724007561  L 12.7427884615385 11.2514177693762  L 17.8810096153846 0.930056710775045  C 18.1702724358974 0.31001890359168  18.5432692307692 0  19 0  C 19.4567307692308 0  19.8297275641026 0.31001890359168  20.1189903846154 0.930056710775045  L 25.2572115384615 11.2514177693762  L 36.7211538461538 12.9073724007561  Z " fill-rule="nonzero" fill="#cd7517" stroke="none" transform="matrix(1 0 0 1 593 906 )" />
  </g>
</svg>