<?xml version="1.0" encoding="utf-8"?>
<svg version="1.1" xmlns:xlink="http://www.w3.org/1999/xlink" width="367px" height="246px" xmlns="http://www.w3.org/2000/svg">
  <defs>
    <linearGradient gradientUnits="userSpaceOnUse" x1="183" y1="0" x2="183" y2="245" id="LinearGradient502">
      <stop id="Stop503" stop-color="#13c2c2" stop-opacity="0.749019607843137" offset="0" />
      <stop id="Stop504" stop-color="#2f54eb" stop-opacity="0.4" offset="1" />
    </linearGradient>
  </defs>
  <g transform="matrix(1 0 0 1 -1483 -748 )">
    <path d="M 1.5 243.371618470149  L 366.5 245  L 366.5 130.077589897261  C 366.5 130.077589897261  339.444984235407 100.129227423459  305.318122555411 99.0895432692307  C 270.886214282503 98.0405657873024  274.694988163941 144.101995656416  245.829204693611 130.077589897261  C 208.442445763056 111.913278583806  227.479915466341 55.5081196516615  188.567144719687 21.3491586538462  C 157.944751025806 -5.53222583196549  157.598652366274 -4.40707978332293  124.263814504442 10.9080216078067  C 84.6376767323242 29.1135494173095  99.6533284098186 63.8773760036111  60.1174038859033 92.7620045731708  C 29.7964813065382 114.914226815035  1.5 109.1015625  1.5 109.1015625  L 1.5 243.371618470149  Z " fill-rule="nonzero" fill="url(#LinearGradient502)" stroke="none" transform="matrix(1 0 0 1 1483 748 )" />
    <path d="M 366.5 245  L 366.5 130.077589897261  C 366.5 130.077589897261  339.444984235407 100.129227423459  305.318122555411 99.0895432692307  C 270.886214282503 98.0405657873024  274.694988163941 144.101995656416  245.829204693611 130.077589897261  C 208.442445763056 111.913278583806  227.479915466341 55.5081196516615  188.567144719687 21.3491586538462  C 157.944751025806 -5.53222583196549  157.598652366274 -4.40707978332293  124.263814504442 10.9080216078067  C 84.6376767323242 29.1135494173095  99.6533284098186 63.8773760036111  60.1174038859033 92.7620045731708  C 29.7964813065382 114.914226815035  1.5 109.1015625  1.5 109.1015625  L 1.5 243.371618470149  " stroke-width="1" stroke="#13c2c2" fill="none" transform="matrix(1 0 0 1 1483 748 )" />
  </g>
</svg>