<?xml version="1.0" encoding="utf-8"?>
<svg version="1.1" xmlns:xlink="http://www.w3.org/1999/xlink" width="457px" height="310px" xmlns="http://www.w3.org/2000/svg">
  <g transform="matrix(1 0 0 1 -965 -726 )">
    <path d="M 966 741  A 14 14 0 0 1 980 727 L 1407 727  A 14 14 0 0 1 1421 741 L 1421 1021  A 14 14 0 0 1 1407 1035 L 980 1035  A 14 14 0 0 1 966 1021 L 966 741  Z " fill-rule="nonzero" fill="#123f73" stroke="none" fill-opacity="0.298039215686275" />
    <path d="M 965.5 741  A 14.5 14.5 0 0 1 980 726.5 L 1407 726.5  A 14.5 14.5 0 0 1 1421.5 741 L 1421.5 1021  A 14.5 14.5 0 0 1 1407 1035.5 L 980 1035.5  A 14.5 14.5 0 0 1 965.5 1021 L 965.5 741  Z " stroke-width="1" stroke="#064a9b" fill="none" stroke-opacity="0.996078431372549" />
  </g>
</svg>