<?xml version="1.0" encoding="utf-8"?>
<svg version="1.1" xmlns:xlink="http://www.w3.org/1999/xlink" width="100px" height="132px" xmlns="http://www.w3.org/2000/svg">
  <g transform="matrix(1 0 0 1 -661 -847 )">
    <path d="M 100 9.15925725246416  C 100 9.15925725246416  96.7430245359584 15.1477830330936  92.3223430371921 23.2759883009269  C 84.7194492321838 18.6480462769513  75.7259948686368 16  66.0102340811266 16  C 38.0058923497396 16  16.002480989364 38  16.002480989364 66  C 16.002480989364 94  38.0058923497396 116  66.0102340811266 116  C 66.8323340034895 116  67.6492624194721 115.981040749796  68.4606139826228 115.943516072221  C 68.4606139826228 125.170212714124  68.4606139826228 132  68.4606139826228 132  C 68.4606139826228 132  67.309582320282 132  66.0102340811266 132  C 29.0445029956957 132  0 102.96  0 66  C 0 29.04  29.0445029956957 0  66.0102340811266 0  C 77.2223860054916 0  87.7057991740036 2.67162783727588  96.8710462510304 7.42554755970843  C 97.9319989802025 7.97585286641686  100 9.15925725246416  100 9.15925725246416  Z " fill-rule="nonzero" fill="#af3b14" stroke="none" transform="matrix(1 0 0 1 661 847 )" />
  </g>
</svg>