<?xml version="1.0" encoding="utf-8"?>
<svg version="1.1" xmlns:xlink="http://www.w3.org/1999/xlink" width="806px" height="108px" xmlns="http://www.w3.org/2000/svg">
  <defs>
    <linearGradient gradientUnits="userSpaceOnUse" x1="402.5" y1="0" x2="402.5" y2="107" id="LinearGradient897">
      <stop id="Stop898" stop-color="#02a7f0" offset="0" />
      <stop id="Stop899" stop-color="#2f54eb" stop-opacity="0.4" offset="1" />
    </linearGradient>
  </defs>
  <g transform="matrix(1 0 0 1 -1238 -2650 )">
    <path d="M 3.5 106.452685421995  L 805.5 106.452685421995  L 805.5 79.0391602144135  C 805.5 79.0391602144135  746.593476255471 60.8416104166681  671.533029117775 60.2098662207357  C 595.801646167801 59.5724751119296  604.178867409761 87.5608222054248  540.689917427206 79.0391602144135  C 458.459477702897 68.001963774792  500.331508061214 33.7284475043991  414.744676227727 12.9724080267559  C 347.392143649655 -3.36155124199642  346.630915723637 -2.67787776008833  273.312488186 6.6280507515759  C 186.156638714538 17.6902916068976  219.182867130885 38.8138660934099  132.225437508612 56.3650583244963  C 65.5359766441618 69.8254325846813  3.5 66.2934782608698  3.5 66.2934782608698  L 3.5 106.452685421995  Z " fill-rule="nonzero" fill="url(#LinearGradient897)" stroke="none" transform="matrix(1 0 0 1 1238 2650 )" />
    <path d="M 805.5 106.452685421995  L 805.5 79.0391602144135  C 805.5 79.0391602144135  746.593476255471 60.8416104166681  671.533029117775 60.2098662207357  C 595.801646167801 59.5724751119296  604.178867409761 87.5608222054248  540.689917427206 79.0391602144135  C 458.459477702897 68.001963774792  500.331508061214 33.7284475043991  414.744676227727 12.9724080267559  C 347.392143649655 -3.36155124199642  346.630915723637 -2.67787776008833  273.312488186 6.6280507515759  C 186.156638714538 17.6902916068976  219.182867130885 38.8138660934099  132.225437508612 56.3650583244963  C 65.5359766441618 69.8254325846813  3.5 66.2934782608698  3.5 66.2934782608698  L 3.5 106.452685421995  " stroke-width="1" stroke="#13c2c2" fill="none" transform="matrix(1 0 0 1 1238 2650 )" />
  </g>
</svg>