<?xml version="1.0" encoding="utf-8"?>
<svg version="1.1" xmlns:xlink="http://www.w3.org/1999/xlink" width="130px" height="130px" xmlns="http://www.w3.org/2000/svg">
  <g transform="matrix(1 0 0 1 -1430 -306 )">
    <path d="M 1495 306  C 1531.4 306  1560 334.6  1560 371  C 1560 407.4  1531.4 436  1495 436  C 1458.6 436  1430 407.4  1430 371  C 1430 334.6  1458.6 306  1495 306  Z " fill-rule="nonzero" fill="#041120" stroke="none" />
    <path d="M 1495 306.5  C 1531.12 306.5  1559.5 334.88  1559.5 371  C 1559.5 407.12  1531.12 435.5  1495 435.5  C 1458.88 435.5  1430.5 407.12  1430.5 371  C 1430.5 334.88  1458.88 306.5  1495 306.5  Z " stroke-width="1" stroke="#ffffff" fill="none" />
  </g>
</svg>