<?xml version="1.0" encoding="utf-8"?>
<svg version="1.1" xmlns:xlink="http://www.w3.org/1999/xlink" width="10px" height="10px" xmlns="http://www.w3.org/2000/svg">
  <g transform="matrix(1 0 0 1 -259 -667 )">
    <path d="M 264 668  C 266.24 668  268 669.76  268 672  C 268 674.24  266.24 676  264 676  C 261.76 676  260 674.24  260 672  C 260 669.76  261.76 668  264 668  Z " fill-rule="nonzero" fill="#ffffff" stroke="none" fill-opacity="0.996078431372549" />
    <path d="M 264 668  C 266.24 668  268 669.76  268 672  C 268 674.24  266.24 676  264 676  C 261.76 676  260 674.24  260 672  C 260 669.76  261.76 668  264 668  Z " stroke-width="2" stroke="#0a84ff" fill="none" />
  </g>
</svg>