<?xml version="1.0" encoding="utf-8"?>
<svg version="1.1" xmlns:xlink="http://www.w3.org/1999/xlink" width="7px" height="7px" xmlns="http://www.w3.org/2000/svg">
  <g transform="matrix(1 0 0 1 -930 -629 )">
    <path d="M 933.5 630  C 934.9 630  936 631.1  936 632.5  C 936 633.9  934.9 635  933.5 635  C 932.1 635  931 633.9  931 632.5  C 931 631.1  932.1 630  933.5 630  Z " fill-rule="nonzero" fill="#ffffff" stroke="none" fill-opacity="0.996078431372549" />
    <path d="M 933.5 630  C 934.9 630  936 631.1  936 632.5  C 936 633.9  934.9 635  933.5 635  C 932.1 635  931 633.9  931 632.5  C 931 631.1  932.1 630  933.5 630  Z " stroke-width="2" stroke="#1890ff" fill="none" />
  </g>
</svg>