<?xml version="1.0" encoding="utf-8"?>
<svg version="1.1" xmlns:xlink="http://www.w3.org/1999/xlink" width="465px" height="122px" xmlns="http://www.w3.org/2000/svg">
  <defs>
    <linearGradient gradientUnits="userSpaceOnUse" x1="232" y1="0" x2="232" y2="121" id="LinearGradient1050">
      <stop id="Stop1051" stop-color="#02a7f0" offset="0" />
      <stop id="Stop1052" stop-color="#2f54eb" stop-opacity="0.4" offset="1" />
    </linearGradient>
  </defs>
  <g transform="matrix(1 0 0 1 -637 -313 )">
    <path d="M 2.5 120.381074168798  L 464.5 120.381074168798  L 464.5 89.3807325789162  C 464.5 89.3807325789162  430.334624823029 68.8021949571667  387.069969578444 68.0877926421404  C 343.418588598583 67.367004565827  348.247198109477 99.0173783818355  311.652325076054 89.3807325789162  C 264.254903918192 76.8994169789704  288.389838186836 38.141515402171  239.057800956106 14.6697324414716  C 200.23596851359 -3.80138037646324  199.797198628282 -3.02825428944568  157.536639153173 7.49527234524004  C 107.300224054094 20.0049092003234  126.336460060535 43.892315862641  76.2144136695604 63.739925768823  C 37.7747741153926 78.9614704929574  2.5 74.9673913043481  2.5 74.9673913043481  L 2.5 120.381074168798  Z " fill-rule="nonzero" fill="url(#LinearGradient1050)" stroke="none" transform="matrix(1 0 0 1 637 313 )" />
    <path d="M 464.5 120.381074168798  L 464.5 89.3807325789162  C 464.5 89.3807325789162  430.334624823029 68.8021949571667  387.069969578444 68.0877926421404  C 343.418588598583 67.367004565827  348.247198109477 99.0173783818355  311.652325076054 89.3807325789162  C 264.254903918192 76.8994169789704  288.389838186836 38.141515402171  239.057800956106 14.6697324414716  C 200.23596851359 -3.80138037646324  199.797198628282 -3.02825428944568  157.536639153173 7.49527234524004  C 107.300224054094 20.0049092003234  126.336460060535 43.892315862641  76.2144136695604 63.739925768823  C 37.7747741153926 78.9614704929574  2.5 74.9673913043481  2.5 74.9673913043481  L 2.5 120.381074168798  " stroke-width="1" stroke="#13c2c2" fill="none" transform="matrix(1 0 0 1 637 313 )" />
  </g>
</svg>