<?xml version="1.0" encoding="utf-8"?>
<svg version="1.1" xmlns:xlink="http://www.w3.org/1999/xlink" width="562px" height="207px" xmlns="http://www.w3.org/2000/svg">
  <defs>
    <linearGradient gradientUnits="userSpaceOnUse" x1="280.5" y1="0" x2="280.5" y2="206" id="LinearGradient1089">
      <stop id="Stop1090" stop-color="#02a7f0" offset="0" />
      <stop id="Stop1091" stop-color="#2f54eb" stop-opacity="0.4" offset="1" />
    </linearGradient>
  </defs>
  <g transform="matrix(1 0 0 1 -76 -772 )">
    <path d="M 2.5 204.946291560102  L 561.5 204.946291560102  L 561.5 152.168850506254  C 561.5 152.168850506254  520.296820098533 117.134315381623  467.987614080834 115.918060200669  C 415.210836646132 114.690933393061  421.048875300467 168.575040881472  376.803780964798 152.168850506254  C 319.497847194193 130.919668575768  348.678231083654 64.9351419243572  289.033246414602 24.9749163879599  C 242.095642965784 -6.4717715500118  241.565147479454 -5.15554036054388  190.469945183038 12.7605463067723  C 129.731520892989 34.0579445889804  152.747314857673 74.7257608901162  92.1471682513435 108.515906680806  C 45.6716557731363 134.430272078919  2.5 127.630434782609  2.5 127.630434782609  L 2.5 204.946291560102  Z " fill-rule="nonzero" fill="url(#LinearGradient1089)" stroke="none" transform="matrix(1 0 0 1 76 772 )" />
    <path d="M 561.5 204.946291560102  L 561.5 152.168850506254  C 561.5 152.168850506254  520.296820098533 117.134315381623  467.987614080834 115.918060200669  C 415.210836646132 114.690933393061  421.048875300467 168.575040881472  376.803780964798 152.168850506254  C 319.497847194193 130.919668575768  348.678231083654 64.9351419243572  289.033246414602 24.9749163879599  C 242.095642965784 -6.4717715500118  241.565147479454 -5.15554036054388  190.469945183038 12.7605463067723  C 129.731520892989 34.0579445889804  152.747314857673 74.7257608901162  92.1471682513435 108.515906680806  C 45.6716557731363 134.430272078919  2.5 127.630434782609  2.5 127.630434782609  L 2.5 204.946291560102  " stroke-width="1" stroke="#13c2c2" fill="none" transform="matrix(1 0 0 1 76 772 )" />
  </g>
</svg>