<?xml version="1.0" encoding="utf-8"?>
<svg version="1.1" xmlns:xlink="http://www.w3.org/1999/xlink" width="7px" height="10px" xmlns="http://www.w3.org/2000/svg">
  <g transform="matrix(1 0 0 1 -725 -408 )">
    <path d="M 728.5 409  C 729.9 409  731 410.76  731 413  C 731 415.24  729.9 417  728.5 417  C 727.1 417  726 415.24  726 413  C 726 410.76  727.1 409  728.5 409  Z " fill-rule="nonzero" fill="#ffffff" stroke="none" fill-opacity="0.996078431372549" />
    <path d="M 728.5 409  C 729.9 409  731 410.76  731 413  C 731 415.24  729.9 417  728.5 417  C 727.1 417  726 415.24  726 413  C 726 410.76  727.1 409  728.5 409  Z " stroke-width="2" stroke="#0a84ff" fill="none" />
  </g>
</svg>