<?xml version="1.0" encoding="utf-8"?>
<svg version="1.1" xmlns:xlink="http://www.w3.org/1999/xlink" width="519px" height="188px" xmlns="http://www.w3.org/2000/svg">
  <g transform="matrix(1 0 0 1 -52 -146 )">
    <path d="M 53 161  A 14 14 0 0 1 67 147 L 556 147  A 14 14 0 0 1 570 161 L 570 319  A 14 14 0 0 1 556 333 L 67 333  A 14 14 0 0 1 53 319 L 53 161  Z " fill-rule="nonzero" fill="#123f73" stroke="none" fill-opacity="0.298039215686275" />
    <path d="M 52.5 161  A 14.5 14.5 0 0 1 67 146.5 L 556 146.5  A 14.5 14.5 0 0 1 570.5 161 L 570.5 319  A 14.5 14.5 0 0 1 556 333.5 L 67 333.5  A 14.5 14.5 0 0 1 52.5 319 L 52.5 161  Z " stroke-width="1" stroke="#064a9b" fill="none" stroke-opacity="0.996078431372549" />
  </g>
</svg>