<?xml version="1.0" encoding="utf-8"?>
<svg version="1.1" xmlns:xlink="http://www.w3.org/1999/xlink" width="931px" height="228px" xmlns="http://www.w3.org/2000/svg">
  <g transform="matrix(1 0 0 1 -42 -822 )">
    <path d="M 43 837  A 14 14 0 0 1 57 823 L 958 823  A 14 14 0 0 1 972 837 L 972 1035  A 14 14 0 0 1 958 1049 L 57 1049  A 14 14 0 0 1 43 1035 L 43 837  Z " fill-rule="nonzero" fill="#123f73" stroke="none" fill-opacity="0.298039215686275" />
    <path d="M 42.5 837  A 14.5 14.5 0 0 1 57 822.5 L 958 822.5  A 14.5 14.5 0 0 1 972.5 837 L 972.5 1035  A 14.5 14.5 0 0 1 958 1049.5 L 57 1049.5  A 14.5 14.5 0 0 1 42.5 1035 L 42.5 837  Z " stroke-width="1" stroke="#064a9b" fill="none" stroke-opacity="0.996078431372549" />
  </g>
</svg>