<?xml version="1.0" encoding="utf-8"?>
<svg version="1.1" xmlns:xlink="http://www.w3.org/1999/xlink" width="9px" height="10px" xmlns="http://www.w3.org/2000/svg">
  <g transform="matrix(1 0 0 1 -163 -960 )">
    <path d="M 167.5 961  C 169.46 961  171 962.76  171 965  C 171 967.24  169.46 969  167.5 969  C 165.54 969  164 967.24  164 965  C 164 962.76  165.54 961  167.5 961  Z " fill-rule="nonzero" fill="#ffffff" stroke="none" fill-opacity="0.996078431372549" />
    <path d="M 167.5 961  C 169.46 961  171 962.76  171 965  C 171 967.24  169.46 969  167.5 969  C 165.54 969  164 967.24  164 965  C 164 962.76  165.54 961  167.5 961  Z " stroke-width="2" stroke="#0a84ff" fill="none" />
  </g>
</svg>