<?xml version="1.0" encoding="utf-8"?>
<svg version="1.1" xmlns:xlink="http://www.w3.org/1999/xlink" width="6px" height="7px" xmlns="http://www.w3.org/2000/svg">
  <g transform="matrix(1 0 0 1 -767 -922 )">
    <path d="M 770 923  C 771.12 923  772 924.1  772 925.5  C 772 926.9  771.12 928  770 928  C 768.88 928  768 926.9  768 925.5  C 768 924.1  768.88 923  770 923  Z " fill-rule="nonzero" fill="#ffffff" stroke="none" fill-opacity="0.996078431372549" />
    <path d="M 770 923  C 771.12 923  772 924.1  772 925.5  C 772 926.9  771.12 928  770 928  C 768.88 928  768 926.9  768 925.5  C 768 924.1  768.88 923  770 923  Z " stroke-width="2" stroke="#1890ff" fill="none" />
  </g>
</svg>