<?xml version="1.0" encoding="utf-8"?>
<svg version="1.1" xmlns:xlink="http://www.w3.org/1999/xlink" width="931px" height="232px" xmlns="http://www.w3.org/2000/svg">
  <g transform="matrix(1 0 0 1 -993 -822 )">
    <path d="M 994 837  A 14 14 0 0 1 1008 823 L 1909 823  A 14 14 0 0 1 1923 837 L 1923 1039  A 14 14 0 0 1 1909 1053 L 1008 1053  A 14 14 0 0 1 994 1039 L 994 837  Z " fill-rule="nonzero" fill="#123f73" stroke="none" fill-opacity="0.298039215686275" />
    <path d="M 993.5 837  A 14.5 14.5 0 0 1 1008 822.5 L 1909 822.5  A 14.5 14.5 0 0 1 1923.5 837 L 1923.5 1039  A 14.5 14.5 0 0 1 1909 1053.5 L 1008 1053.5  A 14.5 14.5 0 0 1 993.5 1039 L 993.5 837  Z " stroke-width="1" stroke="#064a9b" fill="none" stroke-opacity="0.996078431372549" />
  </g>
</svg>