<?xml version="1.0" encoding="utf-8"?>
<svg version="1.1" xmlns:xlink="http://www.w3.org/1999/xlink" width="1035px" height="241px" xmlns="http://www.w3.org/2000/svg">
  <g transform="matrix(1 0 0 1 -124 -529 )">
    <path d="M 125 544  A 14 14 0 0 1 139 530 L 1144 530  A 14 14 0 0 1 1158 544 L 1158 755  A 14 14 0 0 1 1144 769 L 139 769  A 14 14 0 0 1 125 755 L 125 544  Z " fill-rule="nonzero" fill="#123f73" stroke="none" fill-opacity="0.298039215686275" />
    <path d="M 124.5 544  A 14.5 14.5 0 0 1 139 529.5 L 1144 529.5  A 14.5 14.5 0 0 1 1158.5 544 L 1158.5 755  A 14.5 14.5 0 0 1 1144 769.5 L 139 769.5  A 14.5 14.5 0 0 1 124.5 755 L 124.5 544  Z " stroke-width="1" stroke="#064a9b" fill="none" stroke-opacity="0.996078431372549" />
  </g>
</svg>