<?xml version="1.0" encoding="utf-8"?>
<svg version="1.1" xmlns:xlink="http://www.w3.org/1999/xlink" width="80px" height="35px" xmlns="http://www.w3.org/2000/svg">
  <g transform="matrix(1 0 0 1 -405 -378 )">
    <path d="M 406 383  A 4 4 0 0 1 410 379 L 480 379  A 4 4 0 0 1 484 383 L 484 408  A 4 4 0 0 1 480 412 L 410 412  A 4 4 0 0 1 406 408 L 406 383  Z " fill-rule="nonzero" fill="#f0f7ff" stroke="none" />
    <path d="M 405.5 383  A 4.5 4.5 0 0 1 410 378.5 L 480 378.5  A 4.5 4.5 0 0 1 484.5 383 L 484.5 408  A 4.5 4.5 0 0 1 480 412.5 L 410 412.5  A 4.5 4.5 0 0 1 405.5 408 L 405.5 383  Z " stroke-width="1" stroke="#7abbff" fill="none" stroke-opacity="0.996078431372549" />
  </g>
</svg>