<?xml version="1.0" encoding="utf-8"?>
<svg version="1.1" xmlns:xlink="http://www.w3.org/1999/xlink" width="250px" height="236px" xmlns="http://www.w3.org/2000/svg">
  <g transform="matrix(1 0 0 1 -1524 -304 )">
    <path d="M 66.7749971089885 0  L 86.818841205945 37.2720100911662  C 59.777706397234 51.2755601362429  41.6666666666667 79.3927844496579  41.6666666666667 112.447058823529  C 41.6666666666667 159.869176470588  78.9444444444443 197.129411764706  126.388888888889 197.129411764706  C 173.833333333333 197.129411764706  211.111111111111 159.869176470588  211.111111111111 112.447058823529  C 211.111111111111 90.697755099609  203.269977682084 71.0859359622025  190.203125814318 56.2257850681606  L 220.333652250026 29.1529411764706  C 238.906055022989 51.1577380085467  250 79.8529877935907  250 111.596339748299  C 250 127.092791747605  247.356100214936 141.862822560586  242.488905459558 155.48266118704  L 243.055555555556 155.692512367397  C 225.312988224997 203.049225017653  179.933333246258 236  125.532609605809 236  C 55.2343482265558 236  0 180.976850164651  0 110.947386737844  C 0 62.1868045368389  26.778447880388 20.7015102551797  66.7749971089885 0  Z " fill-rule="nonzero" fill="#1165b2" stroke="none" transform="matrix(1 0 0 1 1524 304 )" />
  </g>
</svg>