<?xml version="1.0" encoding="utf-8"?>
<svg version="1.1" xmlns:xlink="http://www.w3.org/1999/xlink" width="1177px" height="239px" xmlns="http://www.w3.org/2000/svg">
  <defs>
    <linearGradient gradientUnits="userSpaceOnUse" x1="588" y1="0" x2="588" y2="238" id="LinearGradient777">
      <stop id="Stop778" stop-color="#02a7f0" offset="0" />
      <stop id="Stop779" stop-color="#2f54eb" stop-opacity="0.4" offset="1" />
    </linearGradient>
  </defs>
  <g transform="matrix(1 0 0 1 -130 -349 )">
    <path d="M 4.5 236.782608695652  L 1176.5 236.782608695652  L 1176.5 175.806730196546  C 1176.5 175.806730196546  1090.67568705147 135.329937188477  981.022164276402 133.924749163879  C 870.388491792962 132.507000716255  882.626519346434 194.761454998982  789.877444589309 175.806730196546  C 669.749497861624 151.256704471033  730.919072645947 75.0221542621214  605.887874837027 28.8545150501673  C 507.494609853409 -7.47709528593596  506.382555144095 -5.95640099907497  399.273895784765 14.7427670922903  C 271.950567861238 39.3484990882395  320.197579808597 86.3336460769303  193.164117403886 125.372746553553  C 95.7395137062537 155.312644440693  4.5 147.456521739131  4.5 147.456521739131  L 4.5 236.782608695652  Z " fill-rule="nonzero" fill="url(#LinearGradient777)" stroke="none" transform="matrix(1 0 0 1 130 349 )" />
    <path d="M 1176.5 236.782608695652  L 1176.5 175.806730196546  C 1176.5 175.806730196546  1090.67568705147 135.329937188477  981.022164276402 133.924749163879  C 870.388491792962 132.507000716255  882.626519346434 194.761454998982  789.877444589309 175.806730196546  C 669.749497861624 151.256704471033  730.919072645947 75.0221542621214  605.887874837027 28.8545150501673  C 507.494609853409 -7.47709528593596  506.382555144095 -5.95640099907497  399.273895784765 14.7427670922903  C 271.950567861238 39.3484990882395  320.197579808597 86.3336460769303  193.164117403886 125.372746553553  C 95.7395137062537 155.312644440693  4.5 147.456521739131  4.5 147.456521739131  L 4.5 236.782608695652  " stroke-width="1" stroke="#13c2c2" fill="none" transform="matrix(1 0 0 1 130 349 )" />
  </g>
</svg>