<?xml version="1.0" encoding="utf-8"?>
<svg version="1.1" xmlns:xlink="http://www.w3.org/1999/xlink" width="22px" height="20px" preserveAspectRatio="xMinYMid meet" viewBox="1792 939  22 18" xmlns="http://www.w3.org/2000/svg">
  <g transform="matrix(-1 0 0 -1 3606 1896 )">
    <path d="M 1348 945.5  A 3 3 0 0 0 1345 948.5 A 3 3 0 0 0 1348 951.5 A 3 3 0 0 0 1351 948.5 A 3 3 0 0 0 1348 945.5 Z M 1803 945.5  A 3 3 0 0 0 1800 948.5 A 3 3 0 0 0 1803 951.5 A 3 3 0 0 0 1806 948.5 A 3 3 0 0 0 1803 945.5 Z " fill-rule="nonzero" fill="#0174f3" stroke="none" />
    <path d="M 1346 948.5  L 1805 948.5  " stroke-width="1" stroke="#0174f3" fill="none" />
  </g>
</svg>