<?xml version="1.0" encoding="utf-8"?>
<svg version="1.1" xmlns:xlink="http://www.w3.org/1999/xlink" width="1279px" height="317px" xmlns="http://www.w3.org/2000/svg">
  <g transform="matrix(1 0 0 1 -37 -312 )">
    <path d="M 38 327  A 14 14 0 0 1 52 313 L 1301 313  A 14 14 0 0 1 1315 327 L 1315 614  A 14 14 0 0 1 1301 628 L 52 628  A 14 14 0 0 1 38 614 L 38 327  Z " fill-rule="nonzero" fill="#123f73" stroke="none" fill-opacity="0.298039215686275" />
    <path d="M 37.5 327  A 14.5 14.5 0 0 1 52 312.5 L 1301 312.5  A 14.5 14.5 0 0 1 1315.5 327 L 1315.5 614  A 14.5 14.5 0 0 1 1301 628.5 L 52 628.5  A 14.5 14.5 0 0 1 37.5 614 L 37.5 327  Z " stroke-width="1" stroke="#064a9b" fill="none" stroke-opacity="0.996078431372549" />
  </g>
</svg>