<?xml version="1.0" encoding="utf-8"?>
<svg version="1.1" xmlns:xlink="http://www.w3.org/1999/xlink" width="1177px" height="115px" xmlns="http://www.w3.org/2000/svg">
  <defs>
    <linearGradient gradientUnits="userSpaceOnUse" x1="588" y1="0" x2="588" y2="114" id="LinearGradient350">
      <stop id="Stop351" stop-color="#ffff80" stop-opacity="0.345098039215686" offset="0" />
      <stop id="Stop352" stop-color="#f59a23" stop-opacity="0.4" offset="1" />
    </linearGradient>
  </defs>
  <g transform="matrix(1 0 0 1 -129 -468 )">
    <path d="M 4.5 113.416879795396  L 1176.5 113.416879795396  L 1176.5 84.2099463966649  C 1176.5 84.2099463966649  1090.67568705147 64.8219026869174  981.022164276402 64.1488294314381  C 870.388491792962 63.4697398388783  882.626519346434 93.2891002936302  789.877444589309 84.2099463966649  C 669.749497861624 72.4506903768812  730.919072645947 35.9349814532851  605.887874837027 13.8210702341138  C 507.494609853409 -3.58146580922983  506.382555144095 -2.853066024767  399.273895784765 7.06166154840797  C 271.950567861238 18.8476004036105  320.197579808597 41.3530909780254  193.164117403886 60.0524920466596  C 95.7395137062537 74.3934515388193  4.5 70.630434782609  4.5 70.630434782609  L 4.5 113.416879795396  Z " fill-rule="nonzero" fill="url(#LinearGradient350)" stroke="none" transform="matrix(1 0 0 1 129 468 )" />
    <path d="M 1176.5 113.416879795396  L 1176.5 84.2099463966649  C 1176.5 84.2099463966649  1090.67568705147 64.8219026869174  981.022164276402 64.1488294314381  C 870.388491792962 63.4697398388783  882.626519346434 93.2891002936302  789.877444589309 84.2099463966649  C 669.749497861624 72.4506903768812  730.919072645947 35.9349814532851  605.887874837027 13.8210702341138  C 507.494609853409 -3.58146580922983  506.382555144095 -2.853066024767  399.273895784765 7.06166154840797  C 271.950567861238 18.8476004036105  320.197579808597 41.3530909780254  193.164117403886 60.0524920466596  C 95.7395137062537 74.3934515388193  4.5 70.630434782609  4.5 70.630434782609  L 4.5 113.416879795396  " stroke-width="1" stroke="#13c2c2" fill="none" transform="matrix(1 0 0 1 129 468 )" />
  </g>
</svg>