<?xml version="1.0" encoding="utf-8"?>
<svg version="1.1" xmlns:xlink="http://www.w3.org/1999/xlink" width="18px" height="11px" xmlns="http://www.w3.org/2000/svg">
  <g transform="matrix(1 0 0 1 -1872 -1579 )">
    <path d="M 17.8196392785571 2.00343642611684  C 17.939879759519 1.8774341351661  18 1.73253150057274  18 1.56872852233677  C 18 1.4049255441008  17.939879759519 1.26002290950745  17.8196392785571 1.1340206185567  L 16.9178356713427 0.189003436426117  C 16.7975951903808 0.0630011454753757  16.6593186372746 0  16.503006012024 0  C 16.3466933867735 0  16.2084168336673 0.0630011454753757  16.0881763527054 0.189003436426117  L 9 7.61683848797251  L 1.91182364729459 0.189003436426117  C 1.79158316633267 0.0630011454753757  1.65330661322645 0  1.49699398797595 0  C 1.34068136272545 0  1.20240480961924 0.0630011454753757  1.08216432865731 0.189003436426117  L 0.180360721442886 1.1340206185567  C 0.0601202404809621 1.26002290950745  0 1.4049255441008  0 1.56872852233677  C 0 1.73253150057274  0.0601202404809621 1.8774341351661  0.180360721442886 2.00343642611684  L 8.58517034068136 10.8109965635739  C 8.70541082164329 10.9369988545246  8.8436873747495 11  9 11  C 9.1563126252505 11  9.29458917835671 10.9369988545246  9.41482965931864 10.8109965635739  L 17.8196392785571 2.00343642611684  Z " fill-rule="nonzero" fill="#7f7f7f" stroke="none" transform="matrix(1 0 0 1 1872 1579 )" />
  </g>
</svg>