<?xml version="1.0" encoding="utf-8"?>
<svg version="1.1" xmlns:xlink="http://www.w3.org/1999/xlink" width="1013px" height="292px" xmlns="http://www.w3.org/2000/svg">
  <g transform="matrix(1 0 0 1 -866 -767 )">
    <path d="M 867 782  A 14 14 0 0 1 881 768 L 1864 768  A 14 14 0 0 1 1878 782 L 1878 1044  A 14 14 0 0 1 1864 1058 L 881 1058  A 14 14 0 0 1 867 1044 L 867 782  Z " fill-rule="nonzero" fill="#123f73" stroke="none" fill-opacity="0.298039215686275" />
    <path d="M 866.5 782  A 14.5 14.5 0 0 1 881 767.5 L 1864 767.5  A 14.5 14.5 0 0 1 1878.5 782 L 1878.5 1044  A 14.5 14.5 0 0 1 1864 1058.5 L 881 1058.5  A 14.5 14.5 0 0 1 866.5 1044 L 866.5 782  Z " stroke-width="1" stroke="#064a9b" fill="none" stroke-opacity="0.996078431372549" />
  </g>
</svg>