<?xml version="1.0" encoding="utf-8"?>
<svg version="1.1" xmlns:xlink="http://www.w3.org/1999/xlink" width="146px" height="146px" xmlns="http://www.w3.org/2000/svg">
  <g transform="matrix(1 0 0 1 -654 -840 )">
    <path d="M 727 840.5  C 767.6 840.5  799.5 872.4  799.5 913  C 799.5 953.6  767.6 985.5  727 985.5  C 686.4 985.5  654.5 953.6  654.5 913  C 654.5 872.4  686.4 840.5  727 840.5  Z " fill-rule="nonzero" fill="#123f73" stroke="none" fill-opacity="0" />
    <path d="M 727 840.5  C 767.6 840.5  799.5 872.4  799.5 913  C 799.5 953.6  767.6 985.5  727 985.5  C 686.4 985.5  654.5 953.6  654.5 913  C 654.5 872.4  686.4 840.5  727 840.5  Z " stroke-width="1" stroke="#123f73" fill="none" stroke-opacity="0.6" />
  </g>
</svg>