<?xml version="1.0" encoding="utf-8"?>
<svg version="1.1" xmlns:xlink="http://www.w3.org/1999/xlink" width="826px" height="292px" xmlns="http://www.w3.org/2000/svg">
  <g transform="matrix(1 0 0 1 -17 -762 )">
    <path d="M 18 777  A 14 14 0 0 1 32 763 L 828 763  A 14 14 0 0 1 842 777 L 842 1039  A 14 14 0 0 1 828 1053 L 32 1053  A 14 14 0 0 1 18 1039 L 18 777  Z " fill-rule="nonzero" fill="#123f73" stroke="none" fill-opacity="0.298039215686275" />
    <path d="M 17.5 777  A 14.5 14.5 0 0 1 32 762.5 L 828 762.5  A 14.5 14.5 0 0 1 842.5 777 L 842.5 1039  A 14.5 14.5 0 0 1 828 1053.5 L 32 1053.5  A 14.5 14.5 0 0 1 17.5 1039 L 17.5 777  Z " stroke-width="1" stroke="#064a9b" fill="none" stroke-opacity="0.996078431372549" />
  </g>
</svg>