<?xml version="1.0" encoding="utf-8"?>
<svg version="1.1" xmlns:xlink="http://www.w3.org/1999/xlink" width="64px" height="64px" xmlns="http://www.w3.org/2000/svg">
  <g transform="matrix(1 0 0 1 -1350 -971 )">
    <path d="M 1351 977  A 5 5 0 0 1 1356 972 L 1408 972  A 5 5 0 0 1 1413 977 L 1413 1029  A 5 5 0 0 1 1408 1034 L 1356 1034  A 5 5 0 0 1 1351 1029 L 1351 977  Z " fill-rule="nonzero" fill="#123f73" stroke="none" fill-opacity="0.298039215686275" />
    <path d="M 1350.5 977  A 5.5 5.5 0 0 1 1356 971.5 L 1408 971.5  A 5.5 5.5 0 0 1 1413.5 977 L 1413.5 1029  A 5.5 5.5 0 0 1 1408 1034.5 L 1356 1034.5  A 5.5 5.5 0 0 1 1350.5 1029 L 1350.5 977  Z " stroke-width="1" stroke="#064a9b" fill="none" stroke-opacity="0.996078431372549" />
  </g>
</svg>