<?xml version="1.0" encoding="utf-8"?>
<svg version="1.1" xmlns:xlink="http://www.w3.org/1999/xlink" width="325px" height="325px" xmlns="http://www.w3.org/2000/svg">
  <g transform="matrix(1 0 0 1 -1506 -224 )">
    <path d="M 1668.5 224.5  C 1759.22 224.5  1830.5 295.78  1830.5 386.5  C 1830.5 477.22  1759.22 548.5  1668.5 548.5  C 1577.78 548.5  1506.5 477.22  1506.5 386.5  C 1506.5 295.78  1577.78 224.5  1668.5 224.5  Z " fill-rule="nonzero" fill="#123f73" stroke="none" fill-opacity="0.298039215686275" />
    <path d="M 1668.5 224.5  C 1759.22 224.5  1830.5 295.78  1830.5 386.5  C 1830.5 477.22  1759.22 548.5  1668.5 548.5  C 1577.78 548.5  1506.5 477.22  1506.5 386.5  C 1506.5 295.78  1577.78 224.5  1668.5 224.5  Z " stroke-width="1" stroke="#064a9b" fill="none" stroke-opacity="0.996078431372549" />
  </g>
</svg>