<?xml version="1.0" encoding="utf-8"?>
<svg version="1.1" xmlns:xlink="http://www.w3.org/1999/xlink" width="325px" height="325px" xmlns="http://www.w3.org/2000/svg">
  <g transform="matrix(1 0 0 1 -1509 -224 )">
    <path d="M 1671.5 224.5  C 1762.22 224.5  1833.5 295.78  1833.5 386.5  C 1833.5 477.22  1762.22 548.5  1671.5 548.5  C 1580.78 548.5  1509.5 477.22  1509.5 386.5  C 1509.5 295.78  1580.78 224.5  1671.5 224.5  Z " fill-rule="nonzero" fill="#123f73" stroke="none" fill-opacity="0.298039215686275" />
    <path d="M 1671.5 224.5  C 1762.22 224.5  1833.5 295.78  1833.5 386.5  C 1833.5 477.22  1762.22 548.5  1671.5 548.5  C 1580.78 548.5  1509.5 477.22  1509.5 386.5  C 1509.5 295.78  1580.78 224.5  1671.5 224.5  Z " stroke-width="1" stroke="#064a9b" fill="none" stroke-opacity="0.996078431372549" />
  </g>
</svg>