<?xml version="1.0" encoding="utf-8"?>
<svg version="1.1" xmlns:xlink="http://www.w3.org/1999/xlink" width="5px" height="7px" xmlns="http://www.w3.org/2000/svg">
  <g transform="matrix(1 0 0 1 -1214 -350 )">
    <path d="M 1216.5 351  C 1217.34 351  1218 352.1  1218 353.5  C 1218 354.9  1217.34 356  1216.5 356  C 1215.66 356  1215 354.9  1215 353.5  C 1215 352.1  1215.66 351  1216.5 351  Z " fill-rule="nonzero" fill="#ffffff" stroke="none" fill-opacity="0.996078431372549" />
    <path d="M 1216.5 351  C 1217.34 351  1218 352.1  1218 353.5  C 1218 354.9  1217.34 356  1216.5 356  C 1215.66 356  1215 354.9  1215 353.5  C 1215 352.1  1215.66 351  1216.5 351  Z " stroke-width="2" stroke="#1890ff" fill="none" />
  </g>
</svg>