<?xml version="1.0" encoding="utf-8"?>
<svg version="1.1" xmlns:xlink="http://www.w3.org/1999/xlink" width="9px" height="10px" xmlns="http://www.w3.org/2000/svg">
  <g transform="matrix(1 0 0 1 -164 -940 )">
    <path d="M 168.5 941  C 170.46 941  172 942.76  172 945  C 172 947.24  170.46 949  168.5 949  C 166.54 949  165 947.24  165 945  C 165 942.76  166.54 941  168.5 941  Z " fill-rule="nonzero" fill="#ffffff" stroke="none" fill-opacity="0.996078431372549" />
    <path d="M 168.5 941  C 170.46 941  172 942.76  172 945  C 172 947.24  170.46 949  168.5 949  C 166.54 949  165 947.24  165 945  C 165 942.76  166.54 941  168.5 941  Z " stroke-width="2" stroke="#0a84ff" fill="none" />
  </g>
</svg>