<?xml version="1.0" encoding="utf-8"?>
<svg version="1.1" xmlns:xlink="http://www.w3.org/1999/xlink" width="563px" height="292px" xmlns="http://www.w3.org/2000/svg">
  <g transform="matrix(1 0 0 1 -17 -178 )">
    <path d="M 18 193  A 14 14 0 0 1 32 179 L 565 179  A 14 14 0 0 1 579 193 L 579 455  A 14 14 0 0 1 565 469 L 32 469  A 14 14 0 0 1 18 455 L 18 193  Z " fill-rule="nonzero" fill="#123f73" stroke="none" fill-opacity="0.298039215686275" />
    <path d="M 17.5 193  A 14.5 14.5 0 0 1 32 178.5 L 565 178.5  A 14.5 14.5 0 0 1 579.5 193 L 579.5 455  A 14.5 14.5 0 0 1 565 469.5 L 32 469.5  A 14.5 14.5 0 0 1 17.5 455 L 17.5 193  Z " stroke-width="1" stroke="#064a9b" fill="none" stroke-opacity="0.996078431372549" />
  </g>
</svg>