<?xml version="1.0" encoding="utf-8"?>
<svg version="1.1" xmlns:xlink="http://www.w3.org/1999/xlink" width="563px" height="244px" xmlns="http://www.w3.org/2000/svg">
  <g transform="matrix(1 0 0 1 -17 -480 )">
    <path d="M 18 495  A 14 14 0 0 1 32 481 L 565 481  A 14 14 0 0 1 579 495 L 579 709  A 14 14 0 0 1 565 723 L 32 723  A 14 14 0 0 1 18 709 L 18 495  Z " fill-rule="nonzero" fill="#123f73" stroke="none" fill-opacity="0.298039215686275" />
    <path d="M 17.5 495  A 14.5 14.5 0 0 1 32 480.5 L 565 480.5  A 14.5 14.5 0 0 1 579.5 495 L 579.5 709  A 14.5 14.5 0 0 1 565 723.5 L 32 723.5  A 14.5 14.5 0 0 1 17.5 709 L 17.5 495  Z " stroke-width="1" stroke="#064a9b" fill="none" stroke-opacity="0.996078431372549" />
  </g>
</svg>