<?xml version="1.0" encoding="utf-8"?>
<svg version="1.1" xmlns:xlink="http://www.w3.org/1999/xlink" width="130px" height="129px" xmlns="http://www.w3.org/2000/svg">
  <g transform="matrix(1 0 0 1 -1464 -532 )">
    <path d="M 1529 532  C 1565.4 532  1594 560.38  1594 596.5  C 1594 632.62  1565.4 661  1529 661  C 1492.6 661  1464 632.62  1464 596.5  C 1464 560.38  1492.6 532  1529 532  Z " fill-rule="nonzero" fill="#041120" stroke="none" />
    <path d="M 1529 532.5  C 1565.12 532.5  1593.5 560.66  1593.5 596.5  C 1593.5 632.34  1565.12 660.5  1529 660.5  C 1492.88 660.5  1464.5 632.34  1464.5 596.5  C 1464.5 560.66  1492.88 532.5  1529 532.5  Z " stroke-width="1" stroke="#ffffff" fill="none" />
  </g>
</svg>