<?xml version="1.0" encoding="utf-8"?>
<svg version="1.1" xmlns:xlink="http://www.w3.org/1999/xlink" width="562px" height="115px" xmlns="http://www.w3.org/2000/svg">
  <defs>
    <linearGradient gradientUnits="userSpaceOnUse" x1="280.5" y1="0" x2="280.5" y2="114" id="LinearGradient219">
      <stop id="Stop220" stop-color="#ffff80" stop-opacity="0.345098039215686" offset="0" />
      <stop id="Stop221" stop-color="#f59a23" stop-opacity="0.4" offset="1" />
    </linearGradient>
  </defs>
  <g transform="matrix(1 0 0 1 -76 -864 )">
    <path d="M 2.5 113.416879795396  L 561.5 113.416879795396  L 561.5 84.2099463966649  C 561.5 84.2099463966649  520.296820098533 64.8219026869174  467.987614080834 64.1488294314381  C 415.210836646132 63.4697398388783  421.048875300467 93.2891002936302  376.803780964798 84.2099463966649  C 319.497847194193 72.4506903768812  348.678231083654 35.9349814532851  289.033246414602 13.8210702341138  C 242.095642965784 -3.58146580922983  241.565147479454 -2.853066024767  190.469945183038 7.06166154840797  C 129.731520892989 18.8476004036105  152.747314857673 41.3530909780254  92.1471682513435 60.0524920466596  C 45.6716557731363 74.3934515388193  2.5 70.630434782609  2.5 70.630434782609  L 2.5 113.416879795396  Z " fill-rule="nonzero" fill="url(#LinearGradient219)" stroke="none" transform="matrix(1 0 0 1 76 864 )" />
    <path d="M 561.5 113.416879795396  L 561.5 84.2099463966649  C 561.5 84.2099463966649  520.296820098533 64.8219026869174  467.987614080834 64.1488294314381  C 415.210836646132 63.4697398388783  421.048875300467 93.2891002936302  376.803780964798 84.2099463966649  C 319.497847194193 72.4506903768812  348.678231083654 35.9349814532851  289.033246414602 13.8210702341138  C 242.095642965784 -3.58146580922983  241.565147479454 -2.853066024767  190.469945183038 7.06166154840797  C 129.731520892989 18.8476004036105  152.747314857673 41.3530909780254  92.1471682513435 60.0524920466596  C 45.6716557731363 74.3934515388193  2.5 70.630434782609  2.5 70.630434782609  L 2.5 113.416879795396  " stroke-width="1" stroke="#13c2c2" fill="none" transform="matrix(1 0 0 1 76 864 )" />
  </g>
</svg>