<?xml version="1.0" encoding="utf-8"?>
<svg version="1.1" xmlns:xlink="http://www.w3.org/1999/xlink" width="168px" height="168px" xmlns="http://www.w3.org/2000/svg">
  <g transform="matrix(1 0 0 1 -142 -791 )">
    <path d="M 226 791  C 273.04 791  310 827.96  310 875  C 310 922.04  273.04 959  226 959  C 178.96 959  142 922.04  142 875  C 142 827.96  178.96 791  226 791  Z " fill-rule="nonzero" fill="#030e1b" stroke="none" />
    <path d="M 226 791.5  C 272.76 791.5  309.5 828.24  309.5 875  C 309.5 921.76  272.76 958.5  226 958.5  C 179.24 958.5  142.5 921.76  142.5 875  C 142.5 828.24  179.24 791.5  226 791.5  Z " stroke-width="1" stroke="#ffffff" fill="none" />
  </g>
</svg>