<?xml version="1.0" encoding="utf-8"?>
<svg version="1.1" xmlns:xlink="http://www.w3.org/1999/xlink" width="163px" height="162px" xmlns="http://www.w3.org/2000/svg">
  <g transform="matrix(1 0 0 1 -810 -816 )">
    <path d="M 891.5 816  C 937.14 816  973 851.64  973 897  C 973 942.36  937.14 978  891.5 978  C 845.86 978  810 942.36  810 897  C 810 851.64  845.86 816  891.5 816  Z " fill-rule="nonzero" fill="#041120" stroke="none" />
    <path d="M 891.5 816.5  C 936.86 816.5  972.5 851.92  972.5 897  C 972.5 942.08  936.86 977.5  891.5 977.5  C 846.14 977.5  810.5 942.08  810.5 897  C 810.5 851.92  846.14 816.5  891.5 816.5  Z " stroke-width="1" stroke="#ffffff" fill="none" />
  </g>
</svg>