<?xml version="1.0" encoding="utf-8"?>
<svg version="1.1" xmlns:xlink="http://www.w3.org/1999/xlink" width="163px" height="162px" xmlns="http://www.w3.org/2000/svg">
  <g transform="matrix(1 0 0 1 -810 -794 )">
    <path d="M 891.5 794  C 937.14 794  973 829.64  973 875  C 973 920.36  937.14 956  891.5 956  C 845.86 956  810 920.36  810 875  C 810 829.64  845.86 794  891.5 794  Z " fill-rule="nonzero" fill="#041120" stroke="none" />
    <path d="M 891.5 794.5  C 936.86 794.5  972.5 829.92  972.5 875  C 972.5 920.08  936.86 955.5  891.5 955.5  C 846.14 955.5  810.5 920.08  810.5 875  C 810.5 829.92  846.14 794.5  891.5 794.5  Z " stroke-width="1" stroke="#ffffff" fill="none" />
  </g>
</svg>