<?xml version="1.0" encoding="utf-8"?>
<svg version="1.1" xmlns:xlink="http://www.w3.org/1999/xlink" width="258px" height="119px" xmlns="http://www.w3.org/2000/svg">
  <g transform="matrix(1 0 0 1 -1420 -48 )">
    <path d="M 1420 138.261966740902  C 1420 138.261966740902  1420 53  1420 53  C 1420 50.238576250846  1422.23857625085 48  1425 48  C 1425 48  1673 48  1673 48  C 1675.76142374915 48  1678 50.238576250846  1678 53  C 1678 53  1678 138.261966740902  1678 138.261966740902  C 1678 141.023390490056  1675.76142374915 143.261966740902  1673 143.261966740902  C 1673 143.261966740902  1559.40062111801 143.261966740902  1559.40062111801 143.261966740902  C 1559.40062111801 143.261966740902  1549.82795031056 166.149693012562  1549.82795031056 166.149693012562  C 1549.82795031056 166.149693012562  1539.40062111801 143.261966740902  1539.40062111801 143.261966740902  C 1539.40062111801 143.261966740902  1425 143.261966740902  1425 143.261966740902  C 1422.23857625085 143.261966740902  1420 141.023390490056  1420 138.261966740902  Z " fill-rule="nonzero" fill="#f59a23" stroke="none" fill-opacity="0.8" />
  </g>
</svg>