<?xml version="1.0" encoding="utf-8"?>
<svg version="1.1" xmlns:xlink="http://www.w3.org/1999/xlink" width="258px" height="119px" xmlns="http://www.w3.org/2000/svg">
  <g transform="matrix(1 0 0 1 -964 -148 )">
    <path d="M 964 238.261966740902  C 964 238.261966740902  964 153  964 153  C 964 150.238576250846  966.238576250846 148  969 148  C 969 148  1217 148  1217 148  C 1219.76142374915 148  1222 150.238576250846  1222 153  C 1222 153  1222 238.261966740902  1222 238.261966740902  C 1222 241.023390490056  1219.76142374915 243.261966740902  1217 243.261966740902  C 1217 243.261966740902  1103.40062111801 243.261966740902  1103.40062111801 243.261966740902  C 1103.40062111801 243.261966740902  1093.82795031056 266.149693012562  1093.82795031056 266.149693012562  C 1093.82795031056 266.149693012562  1083.40062111801 243.261966740902  1083.40062111801 243.261966740902  C 1083.40062111801 243.261966740902  969 243.261966740902  969 243.261966740902  C 966.238576250846 243.261966740902  964 241.023390490056  964 238.261966740902  Z " fill-rule="nonzero" fill="#f59a23" stroke="none" fill-opacity="0.8" />
  </g>
</svg>