<?xml version="1.0" encoding="utf-8"?>
<svg version="1.1" xmlns:xlink="http://www.w3.org/1999/xlink" width="187px" height="48px" xmlns="http://www.w3.org/2000/svg">
  <defs>
    <mask fill="white" id="clip1800">
      <path d="M 19 48  L 0 24  L 19 0  L 168 0  L 187 24  L 168 48  L 19 48  Z " fill-rule="evenodd" />
    </mask>
  </defs>
  <g transform="matrix(1 0 0 1 -708 -950 )">
    <path d="M 19 48  L 0 24  L 19 0  L 168 0  L 187 24  L 168 48  L 19 48  Z " fill-rule="nonzero" fill="#016fe8" stroke="none" fill-opacity="0.0980392156862745" transform="matrix(1 0 0 1 708 950 )" />
    <path d="M 19 48  L 0 24  L 19 0  L 168 0  L 187 24  L 168 48  L 19 48  Z " stroke-width="2" stroke="#064a9b" fill="none" stroke-opacity="0.996078431372549" transform="matrix(1 0 0 1 708 950 )" mask="url(#clip1800)" />
  </g>
</svg>