<?xml version="1.0" encoding="utf-8"?>
<svg version="1.1" xmlns:xlink="http://www.w3.org/1999/xlink" width="5px" height="9px" xmlns="http://www.w3.org/2000/svg">
  <defs>
    <mask fill="white" id="clip659">
      <path d="M 5 4.5  C 5 1.98  3.9 0  2.5 0  C 1.1 0  0 1.98  0 4.5  C 0 7.02  1.1 9  2.5 9  C 3.9 9  5 7.02  5 4.5  Z " fill-rule="evenodd" />
    </mask>
  </defs>
  <g transform="matrix(1 0 0 1 -129 -27 )">
    <path d="M 5 4.5  C 5 1.98  3.9 0  2.5 0  C 1.1 0  0 1.98  0 4.5  C 0 7.02  1.1 9  2.5 9  C 3.9 9  5 7.02  5 4.5  Z " fill-rule="nonzero" fill="#007afe" stroke="none" fill-opacity="0.988235294117647" transform="matrix(1 0 0 1 129 27 )" />
    <path d="M 5 4.5  C 5 1.98  3.9 0  2.5 0  C 1.1 0  0 1.98  0 4.5  C 0 7.02  1.1 9  2.5 9  C 3.9 9  5 7.02  5 4.5  Z " stroke-width="2" stroke="#007afe" fill="none" transform="matrix(1 0 0 1 129 27 )" mask="url(#clip659)" />
  </g>
</svg>