<?xml version="1.0" encoding="utf-8"?>
<svg version="1.1" xmlns:xlink="http://www.w3.org/1999/xlink" width="98px" height="98px" xmlns="http://www.w3.org/2000/svg">
  <g transform="matrix(1 0 0 1 -1458 -270 )">
    <path d="M 1507 270  C 1534.44 270  1556 291.56  1556 319  C 1556 346.44  1534.44 368  1507 368  C 1479.56 368  1458 346.44  1458 319  C 1458 291.56  1479.56 270  1507 270  Z " fill-rule="nonzero" fill="#041120" stroke="none" />
    <path d="M 1507 270.5  C 1534.16 270.5  1555.5 291.84  1555.5 319  C 1555.5 346.16  1534.16 367.5  1507 367.5  C 1479.84 367.5  1458.5 346.16  1458.5 319  C 1458.5 291.84  1479.84 270.5  1507 270.5  Z " stroke-width="1" stroke="#ffffff" fill="none" />
  </g>
</svg>