<?xml version="1.0" encoding="utf-8"?>
<svg version="1.1" xmlns:xlink="http://www.w3.org/1999/xlink" width="539px" height="273px" xmlns="http://www.w3.org/2000/svg">
  <g transform="matrix(1 0 0 1 -1370 -178 )">
    <path d="M 1371 193  A 14 14 0 0 1 1385 179 L 1894 179  A 14 14 0 0 1 1908 193 L 1908 436  A 14 14 0 0 1 1894 450 L 1385 450  A 14 14 0 0 1 1371 436 L 1371 193  Z " fill-rule="nonzero" fill="#123f73" stroke="none" fill-opacity="0.298039215686275" />
    <path d="M 1370.5 193  A 14.5 14.5 0 0 1 1385 178.5 L 1894 178.5  A 14.5 14.5 0 0 1 1908.5 193 L 1908.5 436  A 14.5 14.5 0 0 1 1894 450.5 L 1385 450.5  A 14.5 14.5 0 0 1 1370.5 436 L 1370.5 193  Z " stroke-width="1" stroke="#064a9b" fill="none" stroke-opacity="0.996078431372549" />
  </g>
</svg>