<?xml version="1.0" encoding="utf-8"?>
<svg version="1.1" xmlns:xlink="http://www.w3.org/1999/xlink" width="539px" height="265px" xmlns="http://www.w3.org/2000/svg">
  <g transform="matrix(1 0 0 1 -1370 -458 )">
    <path d="M 1371 473  A 14 14 0 0 1 1385 459 L 1894 459  A 14 14 0 0 1 1908 473 L 1908 708  A 14 14 0 0 1 1894 722 L 1385 722  A 14 14 0 0 1 1371 708 L 1371 473  Z " fill-rule="nonzero" fill="#123f73" stroke="none" fill-opacity="0.298039215686275" />
    <path d="M 1370.5 473  A 14.5 14.5 0 0 1 1385 458.5 L 1894 458.5  A 14.5 14.5 0 0 1 1908.5 473 L 1908.5 708  A 14.5 14.5 0 0 1 1894 722.5 L 1385 722.5  A 14.5 14.5 0 0 1 1370.5 708 L 1370.5 473  Z " stroke-width="1" stroke="#064a9b" fill="none" stroke-opacity="0.996078431372549" />
  </g>
</svg>