<?xml version="1.0" encoding="utf-8"?>
<svg version="1.1" xmlns:xlink="http://www.w3.org/1999/xlink" width="770px" height="546px" xmlns="http://www.w3.org/2000/svg">
  <g transform="matrix(1 0 0 1 -590 -178 )">
    <path d="M 591 193  A 14 14 0 0 1 605 179 L 1345 179  A 14 14 0 0 1 1359 193 L 1359 709  A 14 14 0 0 1 1345 723 L 605 723  A 14 14 0 0 1 591 709 L 591 193  Z " fill-rule="nonzero" fill="#123f73" stroke="none" fill-opacity="0.298039215686275" />
    <path d="M 590.5 193  A 14.5 14.5 0 0 1 605 178.5 L 1345 178.5  A 14.5 14.5 0 0 1 1359.5 193 L 1359.5 709  A 14.5 14.5 0 0 1 1345 723.5 L 605 723.5  A 14.5 14.5 0 0 1 590.5 709 L 590.5 193  Z " stroke-width="1" stroke="#064a9b" fill="none" stroke-opacity="0.996078431372549" />
  </g>
</svg>