<?xml version="1.0" encoding="utf-8"?>
<svg version="1.1" xmlns:xlink="http://www.w3.org/1999/xlink" width="130px" height="130px" xmlns="http://www.w3.org/2000/svg">
  <g transform="matrix(1 0 0 1 -1474 -246 )">
    <path d="M 1539 246  C 1575.4 246  1604 274.6  1604 311  C 1604 347.4  1575.4 376  1539 376  C 1502.6 376  1474 347.4  1474 311  C 1474 274.6  1502.6 246  1539 246  Z " fill-rule="nonzero" fill="#041120" stroke="none" />
    <path d="M 1539 246.5  C 1575.12 246.5  1603.5 274.88  1603.5 311  C 1603.5 347.12  1575.12 375.5  1539 375.5  C 1502.88 375.5  1474.5 347.12  1474.5 311  C 1474.5 274.88  1502.88 246.5  1539 246.5  Z " stroke-width="1" stroke="#ffffff" fill="none" />
  </g>
</svg>